<?xml version="1.0" encoding="UTF-8" standalone="no"?>
<!DOCTYPE svg PUBLIC "-//W3C//DTD SVG 1.1//EN" "http://www.w3.org/Graphics/SVG/1.1/DTD/svg11.dtd">
<svg width="100%" height="100%" viewBox="0 0 1368 539" version="1.1" xmlns="http://www.w3.org/2000/svg" xmlns:xlink="http://www.w3.org/1999/xlink" xml:space="preserve" xmlns:serif="http://www.serif.com/" style="fill-rule:evenodd;clip-rule:evenodd;stroke-linejoin:round;stroke-miterlimit:2;">
    <g transform="matrix(1,0,0,1,-193.956,-269.688)">
        <g id="Layer1">
            <g transform="matrix(1.17071,0,0,1.20503,-388.512,164.591)">
                <g transform="matrix(241.159,0,0,241.159,477.53,441.694)">
                    <path d="M0.083,-0L0.083,-0.7L0.217,-0.7L0.515,-0.206L0.444,-0.206L0.737,-0.7L0.87,-0.7L0.872,-0L0.72,-0L0.719,-0.467L0.747,-0.467L0.513,-0.074L0.44,-0.074L0.201,-0.467L0.235,-0.467L0.235,-0L0.083,-0Z" style="fill:rgb(219,112,112);fill-rule:nonzero;"/>
                </g>
                <g transform="matrix(241.159,0,0,241.159,708.078,441.694)">
                    <path d="M0.402,-0L0.402,-0.105L0.392,-0.128L0.392,-0.316C0.392,-0.35 0.382,-0.376 0.362,-0.394C0.341,-0.412 0.31,-0.422 0.268,-0.422C0.239,-0.422 0.211,-0.417 0.184,-0.408C0.156,-0.399 0.132,-0.387 0.113,-0.372L0.057,-0.481C0.086,-0.502 0.122,-0.518 0.163,-0.529C0.204,-0.54 0.246,-0.546 0.289,-0.546C0.371,-0.546 0.435,-0.526 0.48,-0.488C0.526,-0.449 0.548,-0.389 0.548,-0.307L0.548,-0L0.402,-0ZM0.238,0.008C0.196,0.008 0.16,0.001 0.13,-0.014C0.1,-0.028 0.077,-0.047 0.061,-0.072C0.045,-0.096 0.037,-0.124 0.037,-0.155C0.037,-0.187 0.045,-0.215 0.061,-0.239C0.076,-0.263 0.101,-0.282 0.135,-0.295C0.169,-0.309 0.214,-0.316 0.268,-0.316L0.411,-0.316L0.411,-0.225L0.285,-0.225C0.249,-0.225 0.223,-0.219 0.21,-0.207C0.196,-0.195 0.189,-0.18 0.189,-0.162C0.189,-0.142 0.197,-0.126 0.213,-0.115C0.228,-0.103 0.249,-0.097 0.277,-0.097C0.303,-0.097 0.326,-0.103 0.347,-0.115C0.368,-0.127 0.383,-0.146 0.392,-0.17L0.416,-0.098C0.405,-0.063 0.384,-0.037 0.354,-0.019C0.324,-0.001 0.285,0.008 0.238,0.008Z" style="fill:rgb(219,112,112);fill-rule:nonzero;"/>
                </g>
                <g transform="matrix(241.159,0,0,241.159,846.504,441.694)">
                    <rect x="0.072" y="-0.742" width="0.156" height="0.742" style="fill:rgb(219,112,112);fill-rule:nonzero;"/>
                </g>
                <g transform="matrix(241.159,0,0,241.159,906.793,441.694)">
                    <rect x="0.072" y="-0.742" width="0.156" height="0.742" style="fill:rgb(219,112,112);fill-rule:nonzero;"/>
                </g>
                <g transform="matrix(241.159,0,0,241.159,967.083,441.694)">
                    <path d="M0.328,0.008C0.271,0.008 0.22,-0.004 0.176,-0.028C0.131,-0.052 0.096,-0.084 0.071,-0.126C0.045,-0.168 0.032,-0.216 0.032,-0.269C0.032,-0.323 0.045,-0.371 0.071,-0.413C0.096,-0.454 0.131,-0.487 0.176,-0.51C0.22,-0.534 0.27,-0.546 0.328,-0.546C0.385,-0.546 0.436,-0.534 0.48,-0.51C0.525,-0.487 0.559,-0.454 0.585,-0.413C0.61,-0.371 0.623,-0.323 0.623,-0.269C0.623,-0.215 0.61,-0.168 0.585,-0.126C0.56,-0.084 0.525,-0.052 0.48,-0.028C0.435,-0.004 0.385,0.008 0.328,0.008ZM0.328,-0.12C0.354,-0.12 0.377,-0.126 0.398,-0.138C0.418,-0.15 0.435,-0.167 0.447,-0.189C0.459,-0.212 0.465,-0.239 0.465,-0.269C0.465,-0.3 0.459,-0.327 0.447,-0.349C0.435,-0.371 0.418,-0.388 0.398,-0.4C0.377,-0.412 0.354,-0.418 0.328,-0.418C0.302,-0.418 0.278,-0.412 0.258,-0.4C0.237,-0.388 0.221,-0.371 0.209,-0.349C0.196,-0.327 0.19,-0.3 0.19,-0.269C0.19,-0.239 0.196,-0.212 0.209,-0.189C0.221,-0.167 0.237,-0.15 0.258,-0.138C0.278,-0.126 0.302,-0.12 0.328,-0.12Z" style="fill:rgb(219,112,112);fill-rule:nonzero;"/>
                </g>
                <g transform="matrix(241.159,0,0,241.159,1114.19,441.694)">
                    <path d="M0.072,-0L0.072,-0.538L0.221,-0.538L0.221,-0.386L0.2,-0.43C0.216,-0.468 0.242,-0.497 0.277,-0.516C0.312,-0.536 0.355,-0.546 0.406,-0.546L0.406,-0.402C0.4,-0.403 0.393,-0.403 0.388,-0.404C0.383,-0.404 0.377,-0.404 0.371,-0.404C0.328,-0.404 0.294,-0.392 0.267,-0.368C0.241,-0.343 0.228,-0.305 0.228,-0.254L0.228,-0L0.072,-0Z" style="fill:rgb(219,112,112);fill-rule:nonzero;"/>
                </g>
                <g transform="matrix(241.159,0,0,241.159,1202.94,441.694)">
                    <path d="M0.332,0.008C0.274,0.008 0.223,-0.004 0.177,-0.028C0.132,-0.051 0.097,-0.084 0.071,-0.126C0.045,-0.168 0.032,-0.215 0.032,-0.269C0.032,-0.323 0.045,-0.371 0.071,-0.413C0.097,-0.454 0.132,-0.487 0.177,-0.51C0.223,-0.534 0.274,-0.546 0.332,-0.546C0.389,-0.546 0.438,-0.534 0.48,-0.51C0.522,-0.487 0.553,-0.453 0.573,-0.409L0.452,-0.344C0.438,-0.369 0.42,-0.388 0.399,-0.4C0.378,-0.412 0.356,-0.418 0.331,-0.418C0.305,-0.418 0.281,-0.412 0.259,-0.4C0.238,-0.388 0.221,-0.371 0.209,-0.349C0.196,-0.327 0.19,-0.3 0.19,-0.269C0.19,-0.238 0.196,-0.211 0.209,-0.189C0.221,-0.167 0.238,-0.15 0.259,-0.138C0.281,-0.126 0.305,-0.12 0.331,-0.12C0.356,-0.12 0.378,-0.126 0.399,-0.138C0.42,-0.149 0.438,-0.168 0.452,-0.194L0.573,-0.128C0.553,-0.085 0.522,-0.052 0.48,-0.028C0.438,-0.004 0.389,0.008 0.332,0.008Z" style="fill:rgb(219,112,112);fill-rule:nonzero;"/>
                </g>
                <g transform="matrix(241.159,0,0,241.159,1334.37,441.694)">
                    <path d="M0.402,-0L0.402,-0.105L0.392,-0.128L0.392,-0.316C0.392,-0.35 0.382,-0.376 0.362,-0.394C0.341,-0.412 0.31,-0.422 0.268,-0.422C0.239,-0.422 0.211,-0.417 0.184,-0.408C0.156,-0.399 0.132,-0.387 0.113,-0.372L0.057,-0.481C0.086,-0.502 0.122,-0.518 0.163,-0.529C0.204,-0.54 0.246,-0.546 0.289,-0.546C0.371,-0.546 0.435,-0.526 0.48,-0.488C0.526,-0.449 0.548,-0.389 0.548,-0.307L0.548,-0L0.402,-0ZM0.238,0.008C0.196,0.008 0.16,0.001 0.13,-0.014C0.1,-0.028 0.077,-0.047 0.061,-0.072C0.045,-0.096 0.037,-0.124 0.037,-0.155C0.037,-0.187 0.045,-0.215 0.061,-0.239C0.076,-0.263 0.101,-0.282 0.135,-0.295C0.169,-0.309 0.214,-0.316 0.268,-0.316L0.411,-0.316L0.411,-0.225L0.285,-0.225C0.249,-0.225 0.223,-0.219 0.21,-0.207C0.196,-0.195 0.189,-0.18 0.189,-0.162C0.189,-0.142 0.197,-0.126 0.213,-0.115C0.228,-0.103 0.249,-0.097 0.277,-0.097C0.303,-0.097 0.326,-0.103 0.347,-0.115C0.368,-0.127 0.383,-0.146 0.392,-0.17L0.416,-0.098C0.405,-0.063 0.384,-0.037 0.354,-0.019C0.324,-0.001 0.285,0.008 0.238,0.008Z" style="fill:rgb(219,112,112);fill-rule:nonzero;"/>
                </g>
            </g>
            <g transform="matrix(0.242935,0,0,0.242935,549.286,700.815)">
                <g transform="matrix(241.159,0,0,241.159,477.53,441.694)">
                    <path d="M0.166,-0L0.166,-0.66L0.209,-0.613L0.008,-0.613L0.008,-0.7L0.265,-0.7L0.265,-0L0.166,-0Z" style="fill:rgb(219,112,112);fill-rule:nonzero;"/>
                </g>
                <g transform="matrix(241.159,0,0,241.159,560.007,441.694)">
                    <path d="M0.038,-0.172L0.038,-0.242L0.396,-0.7L0.504,-0.7L0.149,-0.242L0.098,-0.258L0.657,-0.258L0.657,-0.172L0.038,-0.172ZM0.427,-0L0.427,-0.172L0.43,-0.258L0.43,-0.41L0.524,-0.41L0.524,-0L0.427,-0Z" style="fill:rgb(219,112,112);fill-rule:nonzero;"/>
                </g>
                <g transform="matrix(241.159,0,0,241.159,715.313,441.694)">
                    <path d="M0.273,0.006C0.22,0.006 0.178,-0.009 0.149,-0.037C0.12,-0.065 0.105,-0.107 0.105,-0.16L0.105,-0.646L0.201,-0.646L0.201,-0.164C0.201,-0.135 0.208,-0.114 0.223,-0.098C0.237,-0.083 0.258,-0.075 0.284,-0.075C0.314,-0.075 0.339,-0.083 0.359,-0.1L0.389,-0.031C0.374,-0.019 0.357,-0.009 0.336,-0.003C0.316,0.003 0.295,0.006 0.273,0.006ZM0.015,-0.451L0.015,-0.53L0.353,-0.53L0.353,-0.451L0.015,-0.451Z" style="fill:rgb(219,112,112);fill-rule:nonzero;"/>
                </g>
                <g transform="matrix(241.159,0,0,241.159,808.883,441.694)">
                    <path d="M0.091,-0L0.091,-0.742L0.187,-0.742L0.187,-0.387L0.168,-0.425C0.185,-0.46 0.212,-0.487 0.248,-0.506C0.284,-0.526 0.326,-0.535 0.374,-0.535C0.417,-0.535 0.455,-0.527 0.488,-0.51C0.521,-0.494 0.547,-0.468 0.566,-0.434C0.585,-0.4 0.594,-0.357 0.594,-0.305L0.594,-0L0.498,-0L0.498,-0.294C0.498,-0.346 0.486,-0.384 0.461,-0.41C0.436,-0.436 0.4,-0.449 0.355,-0.449C0.321,-0.449 0.292,-0.443 0.266,-0.429C0.241,-0.416 0.222,-0.396 0.208,-0.37C0.194,-0.344 0.187,-0.312 0.187,-0.273L0.187,-0L0.091,-0Z" style="fill:rgb(219,112,112);fill-rule:nonzero;"/>
                </g>
                <g transform="matrix(241.159,0,0,241.159,1030.27,441.694)">
                    <rect x="0.094" y="-0.7" width="0.13" height="0.7" style="fill:rgb(219,112,112);fill-rule:nonzero;"/>
                </g>
                <g transform="matrix(241.159,0,0,241.159,1099.24,441.694)">
                    <path d="M0.082,-0L0.082,-0.534L0.201,-0.534L0.201,-0.39L0.18,-0.434C0.199,-0.468 0.226,-0.495 0.261,-0.513C0.297,-0.531 0.338,-0.54 0.385,-0.54C0.428,-0.54 0.466,-0.532 0.5,-0.515C0.533,-0.499 0.559,-0.473 0.579,-0.439C0.598,-0.404 0.608,-0.36 0.608,-0.306L0.608,-0L0.483,-0L0.483,-0.29C0.483,-0.337 0.472,-0.372 0.45,-0.396C0.427,-0.419 0.396,-0.431 0.356,-0.431C0.327,-0.431 0.301,-0.425 0.278,-0.413C0.255,-0.401 0.238,-0.383 0.226,-0.359C0.213,-0.336 0.207,-0.306 0.207,-0.27L0.207,-0L0.082,-0Z" style="fill:rgb(219,112,112);fill-rule:nonzero;"/>
                </g>
                <g transform="matrix(241.159,0,0,241.159,1260.33,441.694)">
                    <path d="M0.283,0.007C0.224,0.007 0.179,-0.009 0.147,-0.039C0.115,-0.069 0.099,-0.114 0.099,-0.173L0.099,-0.652L0.224,-0.652L0.224,-0.176C0.224,-0.15 0.23,-0.131 0.243,-0.117C0.256,-0.103 0.275,-0.096 0.298,-0.096C0.326,-0.096 0.349,-0.103 0.368,-0.118L0.403,-0.029C0.388,-0.017 0.37,-0.008 0.349,-0.002C0.327,0.004 0.305,0.007 0.283,0.007ZM0.011,-0.434L0.011,-0.534L0.367,-0.534L0.367,-0.434L0.011,-0.434Z" style="fill:rgb(219,112,112);fill-rule:nonzero;"/>
                </g>
                <g transform="matrix(241.159,0,0,241.159,1349.08,441.694)">
                    <path d="M0.333,0.007C0.274,0.007 0.222,-0.005 0.178,-0.029C0.133,-0.052 0.099,-0.085 0.074,-0.126C0.05,-0.167 0.038,-0.214 0.038,-0.267C0.038,-0.32 0.049,-0.367 0.073,-0.408C0.097,-0.45 0.13,-0.482 0.172,-0.505C0.213,-0.529 0.261,-0.54 0.314,-0.54C0.366,-0.54 0.412,-0.529 0.453,-0.506C0.494,-0.484 0.526,-0.451 0.549,-0.41C0.572,-0.369 0.584,-0.32 0.584,-0.264C0.584,-0.258 0.584,-0.253 0.584,-0.246C0.583,-0.239 0.583,-0.233 0.582,-0.227L0.137,-0.227L0.137,-0.31L0.516,-0.31L0.467,-0.284C0.467,-0.314 0.461,-0.341 0.448,-0.365C0.435,-0.388 0.417,-0.406 0.394,-0.42C0.371,-0.433 0.344,-0.44 0.314,-0.44C0.284,-0.44 0.257,-0.433 0.234,-0.42C0.21,-0.406 0.192,-0.388 0.179,-0.364C0.167,-0.34 0.16,-0.313 0.16,-0.281L0.16,-0.261C0.16,-0.229 0.167,-0.201 0.182,-0.176C0.197,-0.152 0.217,-0.133 0.244,-0.119C0.27,-0.105 0.301,-0.099 0.336,-0.099C0.366,-0.099 0.393,-0.103 0.417,-0.113C0.441,-0.123 0.462,-0.137 0.481,-0.157L0.548,-0.08C0.524,-0.052 0.494,-0.03 0.457,-0.016C0.421,-0.001 0.379,0.007 0.333,0.007Z" style="fill:rgb(219,112,112);fill-rule:nonzero;"/>
                </g>
                <g transform="matrix(241.159,0,0,241.159,1490.64,441.694)">
                    <path d="M0.082,-0L0.082,-0.534L0.201,-0.534L0.201,-0.387L0.187,-0.43C0.203,-0.466 0.228,-0.494 0.263,-0.512C0.297,-0.531 0.34,-0.54 0.391,-0.54L0.391,-0.421C0.385,-0.422 0.38,-0.423 0.376,-0.423C0.371,-0.424 0.367,-0.424 0.362,-0.424C0.315,-0.424 0.277,-0.41 0.249,-0.382C0.221,-0.355 0.207,-0.314 0.207,-0.259L0.207,-0L0.082,-0Z" style="fill:rgb(219,112,112);fill-rule:nonzero;"/>
                </g>
                <g transform="matrix(241.159,0,0,241.159,1580.59,441.694)">
                    <path d="M0.082,-0L0.082,-0.534L0.201,-0.534L0.201,-0.39L0.18,-0.434C0.199,-0.468 0.226,-0.495 0.261,-0.513C0.297,-0.531 0.338,-0.54 0.385,-0.54C0.428,-0.54 0.466,-0.532 0.5,-0.515C0.533,-0.499 0.559,-0.473 0.579,-0.439C0.598,-0.404 0.608,-0.36 0.608,-0.306L0.608,-0L0.483,-0L0.483,-0.29C0.483,-0.337 0.472,-0.372 0.45,-0.396C0.427,-0.419 0.396,-0.431 0.356,-0.431C0.327,-0.431 0.301,-0.425 0.278,-0.413C0.255,-0.401 0.238,-0.383 0.226,-0.359C0.213,-0.336 0.207,-0.306 0.207,-0.27L0.207,-0L0.082,-0Z" style="fill:rgb(219,112,112);fill-rule:nonzero;"/>
                </g>
                <g transform="matrix(241.159,0,0,241.159,1741.69,441.694)">
                    <path d="M0.411,-0L0.411,-0.108L0.404,-0.131L0.404,-0.32C0.404,-0.357 0.393,-0.385 0.371,-0.405C0.349,-0.426 0.315,-0.436 0.271,-0.436C0.241,-0.436 0.211,-0.431 0.183,-0.422C0.154,-0.413 0.129,-0.4 0.109,-0.383L0.06,-0.474C0.089,-0.496 0.123,-0.512 0.163,-0.524C0.202,-0.535 0.244,-0.54 0.286,-0.54C0.363,-0.54 0.423,-0.522 0.466,-0.485C0.508,-0.448 0.529,-0.391 0.529,-0.313L0.529,-0L0.411,-0ZM0.243,0.007C0.203,0.007 0.168,-0 0.138,-0.014C0.108,-0.027 0.084,-0.046 0.068,-0.071C0.052,-0.095 0.044,-0.122 0.044,-0.153C0.044,-0.183 0.051,-0.21 0.066,-0.234C0.08,-0.258 0.104,-0.277 0.136,-0.291C0.169,-0.305 0.212,-0.312 0.266,-0.312L0.421,-0.312L0.421,-0.229L0.275,-0.229C0.232,-0.229 0.204,-0.222 0.189,-0.208C0.174,-0.195 0.167,-0.178 0.167,-0.158C0.167,-0.135 0.176,-0.117 0.194,-0.104C0.212,-0.091 0.237,-0.084 0.269,-0.084C0.3,-0.084 0.327,-0.091 0.352,-0.105C0.376,-0.119 0.394,-0.139 0.404,-0.167L0.425,-0.092C0.413,-0.06 0.392,-0.036 0.361,-0.019C0.33,-0.002 0.291,0.007 0.243,0.007Z" style="fill:rgb(219,112,112);fill-rule:nonzero;"/>
                </g>
                <g transform="matrix(241.159,0,0,241.159,1880.11,441.694)">
                    <path d="M0.283,0.007C0.224,0.007 0.179,-0.009 0.147,-0.039C0.115,-0.069 0.099,-0.114 0.099,-0.173L0.099,-0.652L0.224,-0.652L0.224,-0.176C0.224,-0.15 0.23,-0.131 0.243,-0.117C0.256,-0.103 0.275,-0.096 0.298,-0.096C0.326,-0.096 0.349,-0.103 0.368,-0.118L0.403,-0.029C0.388,-0.017 0.37,-0.008 0.349,-0.002C0.327,0.004 0.305,0.007 0.283,0.007ZM0.011,-0.434L0.011,-0.534L0.367,-0.534L0.367,-0.434L0.011,-0.434Z" style="fill:rgb(219,112,112);fill-rule:nonzero;"/>
                </g>
                <g transform="matrix(241.159,0,0,241.159,1973.68,441.694)">
                    <path d="M0.082,-0L0.082,-0.534L0.207,-0.534L0.207,-0L0.082,-0ZM0.145,-0.622C0.122,-0.622 0.102,-0.629 0.088,-0.644C0.073,-0.659 0.065,-0.676 0.065,-0.697C0.065,-0.718 0.073,-0.736 0.088,-0.751C0.102,-0.765 0.122,-0.772 0.145,-0.772C0.168,-0.772 0.188,-0.765 0.203,-0.752C0.218,-0.738 0.225,-0.721 0.225,-0.7C0.225,-0.678 0.218,-0.66 0.203,-0.645C0.188,-0.63 0.169,-0.622 0.145,-0.622Z" style="fill:rgb(219,112,112);fill-rule:nonzero;"/>
                </g>
                <g transform="matrix(241.159,0,0,241.159,2033.97,441.694)">
                    <path d="M0.322,0.007C0.268,0.007 0.219,-0.005 0.176,-0.029C0.133,-0.052 0.099,-0.085 0.075,-0.126C0.05,-0.167 0.038,-0.214 0.038,-0.267C0.038,-0.321 0.05,-0.368 0.075,-0.409C0.1,-0.45 0.133,-0.482 0.176,-0.505C0.219,-0.529 0.267,-0.54 0.322,-0.54C0.377,-0.54 0.427,-0.529 0.47,-0.505C0.512,-0.482 0.546,-0.45 0.571,-0.409C0.595,-0.368 0.607,-0.321 0.607,-0.267C0.607,-0.214 0.595,-0.167 0.571,-0.126C0.546,-0.084 0.513,-0.052 0.469,-0.029C0.426,-0.005 0.377,0.007 0.322,0.007ZM0.322,-0.1C0.353,-0.1 0.38,-0.107 0.404,-0.12C0.428,-0.134 0.447,-0.153 0.46,-0.178C0.474,-0.204 0.481,-0.233 0.481,-0.267C0.481,-0.302 0.474,-0.331 0.46,-0.356C0.447,-0.381 0.428,-0.4 0.404,-0.414C0.38,-0.427 0.353,-0.434 0.323,-0.434C0.293,-0.434 0.266,-0.427 0.242,-0.414C0.218,-0.4 0.199,-0.381 0.185,-0.356C0.171,-0.331 0.164,-0.302 0.164,-0.267C0.164,-0.233 0.171,-0.204 0.185,-0.178C0.199,-0.153 0.218,-0.134 0.242,-0.12C0.265,-0.107 0.292,-0.1 0.322,-0.1Z" style="fill:rgb(219,112,112);fill-rule:nonzero;"/>
                </g>
                <g transform="matrix(241.159,0,0,241.159,2181.08,441.694)">
                    <path d="M0.082,-0L0.082,-0.534L0.201,-0.534L0.201,-0.39L0.18,-0.434C0.199,-0.468 0.226,-0.495 0.261,-0.513C0.297,-0.531 0.338,-0.54 0.385,-0.54C0.428,-0.54 0.466,-0.532 0.5,-0.515C0.533,-0.499 0.559,-0.473 0.579,-0.439C0.598,-0.404 0.608,-0.36 0.608,-0.306L0.608,-0L0.483,-0L0.483,-0.29C0.483,-0.337 0.472,-0.372 0.45,-0.396C0.427,-0.419 0.396,-0.431 0.356,-0.431C0.327,-0.431 0.301,-0.425 0.278,-0.413C0.255,-0.401 0.238,-0.383 0.226,-0.359C0.213,-0.336 0.207,-0.306 0.207,-0.27L0.207,-0L0.082,-0Z" style="fill:rgb(219,112,112);fill-rule:nonzero;"/>
                </g>
                <g transform="matrix(241.159,0,0,241.159,2342.17,441.694)">
                    <path d="M0.411,-0L0.411,-0.108L0.404,-0.131L0.404,-0.32C0.404,-0.357 0.393,-0.385 0.371,-0.405C0.349,-0.426 0.315,-0.436 0.271,-0.436C0.241,-0.436 0.211,-0.431 0.183,-0.422C0.154,-0.413 0.129,-0.4 0.109,-0.383L0.06,-0.474C0.089,-0.496 0.123,-0.512 0.163,-0.524C0.202,-0.535 0.244,-0.54 0.286,-0.54C0.363,-0.54 0.423,-0.522 0.466,-0.485C0.508,-0.448 0.529,-0.391 0.529,-0.313L0.529,-0L0.411,-0ZM0.243,0.007C0.203,0.007 0.168,-0 0.138,-0.014C0.108,-0.027 0.084,-0.046 0.068,-0.071C0.052,-0.095 0.044,-0.122 0.044,-0.153C0.044,-0.183 0.051,-0.21 0.066,-0.234C0.08,-0.258 0.104,-0.277 0.136,-0.291C0.169,-0.305 0.212,-0.312 0.266,-0.312L0.421,-0.312L0.421,-0.229L0.275,-0.229C0.232,-0.229 0.204,-0.222 0.189,-0.208C0.174,-0.195 0.167,-0.178 0.167,-0.158C0.167,-0.135 0.176,-0.117 0.194,-0.104C0.212,-0.091 0.237,-0.084 0.269,-0.084C0.3,-0.084 0.327,-0.091 0.352,-0.105C0.376,-0.119 0.394,-0.139 0.404,-0.167L0.425,-0.092C0.413,-0.06 0.392,-0.036 0.361,-0.019C0.33,-0.002 0.291,0.007 0.243,0.007Z" style="fill:rgb(219,112,112);fill-rule:nonzero;"/>
                </g>
                <g transform="matrix(241.159,0,0,241.159,2480.6,441.694)">
                    <rect x="0.082" y="-0.742" width="0.125" height="0.742" style="fill:rgb(219,112,112);fill-rule:nonzero;"/>
                </g>
                <g transform="matrix(241.159,0,0,241.159,2601.18,441.694)">
                    <path d="M0.105,-0L0.105,-0.7L0.599,-0.7L0.599,-0.613L0.205,-0.613L0.205,-0L0.105,-0ZM0.195,-0.283L0.195,-0.369L0.556,-0.369L0.556,-0.283L0.195,-0.283Z" style="fill:rgb(219,112,112);fill-rule:nonzero;"/>
                </g>
                <g transform="matrix(241.159,0,0,241.159,2752.87,441.694)">
                    <path d="M0.091,-0L0.091,-0.53L0.187,-0.53L0.187,-0L0.091,-0ZM0.139,-0.632C0.12,-0.632 0.105,-0.638 0.093,-0.65C0.08,-0.662 0.074,-0.677 0.074,-0.694C0.074,-0.712 0.08,-0.727 0.093,-0.739C0.105,-0.751 0.12,-0.757 0.139,-0.757C0.158,-0.757 0.173,-0.751 0.186,-0.74C0.198,-0.728 0.204,-0.713 0.204,-0.696C0.204,-0.678 0.198,-0.663 0.186,-0.651C0.174,-0.638 0.158,-0.632 0.139,-0.632Z" style="fill:rgb(219,112,112);fill-rule:nonzero;"/>
                </g>
                <g transform="matrix(241.159,0,0,241.159,2813.16,441.694)">
                    <rect x="0.091" y="-0.742" width="0.096" height="0.742" style="fill:rgb(219,112,112);fill-rule:nonzero;"/>
                </g>
                <g transform="matrix(241.159,0,0,241.159,2873.45,441.694)">
                    <path d="M0.091,-0L0.091,-0.53L0.183,-0.53L0.183,-0.389L0.168,-0.425C0.185,-0.46 0.21,-0.487 0.245,-0.506C0.28,-0.526 0.32,-0.535 0.366,-0.535C0.417,-0.535 0.46,-0.523 0.497,-0.498C0.534,-0.473 0.558,-0.435 0.569,-0.384L0.53,-0.4C0.546,-0.44 0.574,-0.473 0.614,-0.498C0.654,-0.523 0.7,-0.535 0.754,-0.535C0.797,-0.535 0.835,-0.527 0.867,-0.51C0.9,-0.494 0.925,-0.468 0.943,-0.434C0.962,-0.4 0.971,-0.357 0.971,-0.305L0.971,-0L0.875,-0L0.875,-0.294C0.875,-0.346 0.863,-0.384 0.839,-0.41C0.815,-0.436 0.782,-0.449 0.738,-0.449C0.706,-0.449 0.678,-0.443 0.654,-0.429C0.63,-0.416 0.612,-0.396 0.599,-0.37C0.586,-0.344 0.579,-0.312 0.579,-0.273L0.579,-0L0.483,-0L0.483,-0.294C0.483,-0.346 0.471,-0.384 0.447,-0.41C0.424,-0.436 0.39,-0.449 0.346,-0.449C0.315,-0.449 0.287,-0.443 0.263,-0.429C0.239,-0.416 0.22,-0.396 0.207,-0.37C0.194,-0.344 0.187,-0.312 0.187,-0.273L0.187,-0L0.091,-0Z" style="fill:rgb(219,112,112);fill-rule:nonzero;"/>
                </g>
                <g transform="matrix(241.159,0,0,241.159,3191.29,441.694)">
                    <path d="M0.105,-0L0.105,-0.7L0.599,-0.7L0.599,-0.613L0.205,-0.613L0.205,-0L0.105,-0ZM0.195,-0.283L0.195,-0.369L0.556,-0.369L0.556,-0.283L0.195,-0.283Z" style="fill:rgb(219,112,112);fill-rule:nonzero;"/>
                </g>
                <g transform="matrix(241.159,0,0,241.159,3338.16,441.694)">
                    <path d="M0.327,0.006C0.27,0.006 0.221,-0.006 0.178,-0.029C0.135,-0.052 0.102,-0.084 0.078,-0.125C0.054,-0.166 0.042,-0.213 0.042,-0.265C0.042,-0.317 0.054,-0.364 0.077,-0.405C0.099,-0.445 0.131,-0.477 0.171,-0.5C0.212,-0.524 0.257,-0.535 0.308,-0.535C0.359,-0.535 0.404,-0.524 0.444,-0.501C0.483,-0.478 0.514,-0.446 0.537,-0.405C0.559,-0.365 0.57,-0.317 0.57,-0.262C0.57,-0.258 0.57,-0.254 0.57,-0.248C0.569,-0.243 0.569,-0.238 0.568,-0.233L0.117,-0.233L0.117,-0.302L0.518,-0.302L0.479,-0.278C0.48,-0.312 0.473,-0.343 0.458,-0.369C0.443,-0.395 0.423,-0.416 0.397,-0.431C0.372,-0.446 0.342,-0.454 0.308,-0.454C0.275,-0.454 0.245,-0.446 0.219,-0.431C0.193,-0.416 0.173,-0.395 0.158,-0.369C0.144,-0.342 0.136,-0.311 0.136,-0.276L0.136,-0.26C0.136,-0.224 0.144,-0.193 0.161,-0.166C0.177,-0.138 0.199,-0.117 0.229,-0.101C0.258,-0.086 0.292,-0.079 0.33,-0.079C0.361,-0.079 0.39,-0.084 0.416,-0.094C0.442,-0.105 0.464,-0.121 0.483,-0.142L0.536,-0.08C0.512,-0.052 0.482,-0.031 0.447,-0.016C0.411,-0.002 0.371,0.006 0.327,0.006Z" style="fill:rgb(219,112,112);fill-rule:nonzero;"/>
                </g>
                <g transform="matrix(241.159,0,0,241.159,3479.72,441.694)">
                    <path d="M0.243,0.006C0.199,0.006 0.157,-0 0.117,-0.012C0.078,-0.024 0.046,-0.039 0.024,-0.056L0.064,-0.132C0.087,-0.116 0.115,-0.103 0.148,-0.093C0.182,-0.082 0.215,-0.077 0.25,-0.077C0.294,-0.077 0.327,-0.083 0.347,-0.096C0.366,-0.109 0.376,-0.127 0.376,-0.149C0.376,-0.166 0.37,-0.179 0.358,-0.188C0.346,-0.197 0.33,-0.204 0.31,-0.209C0.29,-0.214 0.269,-0.218 0.245,-0.222C0.221,-0.225 0.197,-0.23 0.173,-0.235C0.149,-0.241 0.127,-0.249 0.107,-0.26C0.087,-0.27 0.071,-0.284 0.059,-0.303C0.047,-0.321 0.041,-0.346 0.041,-0.376C0.041,-0.408 0.05,-0.436 0.068,-0.46C0.086,-0.484 0.112,-0.502 0.144,-0.515C0.177,-0.529 0.217,-0.535 0.262,-0.535C0.297,-0.535 0.332,-0.531 0.368,-0.522C0.403,-0.514 0.432,-0.502 0.455,-0.487L0.414,-0.411C0.39,-0.427 0.365,-0.438 0.339,-0.444C0.313,-0.45 0.287,-0.453 0.261,-0.453C0.219,-0.453 0.188,-0.446 0.167,-0.433C0.147,-0.419 0.136,-0.402 0.136,-0.38C0.136,-0.362 0.142,-0.348 0.155,-0.339C0.167,-0.329 0.183,-0.322 0.202,-0.316C0.222,-0.311 0.244,-0.306 0.268,-0.303C0.292,-0.299 0.316,-0.294 0.34,-0.289C0.364,-0.283 0.386,-0.275 0.405,-0.265C0.425,-0.255 0.441,-0.241 0.453,-0.223C0.466,-0.205 0.472,-0.181 0.472,-0.151C0.472,-0.119 0.462,-0.091 0.444,-0.068C0.425,-0.044 0.399,-0.026 0.365,-0.014C0.331,-0.001 0.291,0.006 0.243,0.006Z" style="fill:rgb(219,112,112);fill-rule:nonzero;"/>
                </g>
                <g transform="matrix(241.159,0,0,241.159,3591.38,441.694)">
                    <path d="M0.273,0.006C0.22,0.006 0.178,-0.009 0.149,-0.037C0.12,-0.065 0.105,-0.107 0.105,-0.16L0.105,-0.646L0.201,-0.646L0.201,-0.164C0.201,-0.135 0.208,-0.114 0.223,-0.098C0.237,-0.083 0.258,-0.075 0.284,-0.075C0.314,-0.075 0.339,-0.083 0.359,-0.1L0.389,-0.031C0.374,-0.019 0.357,-0.009 0.336,-0.003C0.316,0.003 0.295,0.006 0.273,0.006ZM0.015,-0.451L0.015,-0.53L0.353,-0.53L0.353,-0.451L0.015,-0.451Z" style="fill:rgb(219,112,112);fill-rule:nonzero;"/>
                </g>
                <g transform="matrix(241.159,0,0,241.159,3684.95,441.694)">
                    <path d="M0.091,-0L0.091,-0.53L0.187,-0.53L0.187,-0L0.091,-0ZM0.139,-0.632C0.12,-0.632 0.105,-0.638 0.093,-0.65C0.08,-0.662 0.074,-0.677 0.074,-0.694C0.074,-0.712 0.08,-0.727 0.093,-0.739C0.105,-0.751 0.12,-0.757 0.139,-0.757C0.158,-0.757 0.173,-0.751 0.186,-0.74C0.198,-0.728 0.204,-0.713 0.204,-0.696C0.204,-0.678 0.198,-0.663 0.186,-0.651C0.174,-0.638 0.158,-0.632 0.139,-0.632Z" style="fill:rgb(219,112,112);fill-rule:nonzero;"/>
                </g>
                <g transform="matrix(241.159,0,0,241.159,3745.24,441.694)">
                    <path d="M0.23,-0L-0.002,-0.53L0.098,-0.53L0.304,-0.05L0.256,-0.05L0.466,-0.53L0.56,-0.53L0.328,-0L0.23,-0Z" style="fill:rgb(219,112,112);fill-rule:nonzero;"/>
                </g>
                <g transform="matrix(241.159,0,0,241.159,3864.13,441.694)">
                    <path d="M0.42,-0L0.42,-0.112L0.415,-0.133L0.415,-0.324C0.415,-0.365 0.404,-0.396 0.38,-0.419C0.356,-0.441 0.321,-0.452 0.273,-0.452C0.241,-0.452 0.211,-0.447 0.181,-0.437C0.151,-0.426 0.126,-0.413 0.105,-0.395L0.065,-0.467C0.092,-0.489 0.125,-0.506 0.164,-0.518C0.202,-0.529 0.242,-0.535 0.284,-0.535C0.357,-0.535 0.413,-0.517 0.452,-0.482C0.492,-0.447 0.511,-0.392 0.511,-0.32L0.511,-0L0.42,-0ZM0.246,0.006C0.207,0.006 0.172,-0.001 0.142,-0.014C0.113,-0.027 0.09,-0.046 0.074,-0.069C0.058,-0.093 0.05,-0.12 0.05,-0.15C0.05,-0.179 0.057,-0.205 0.07,-0.228C0.084,-0.251 0.106,-0.27 0.137,-0.284C0.169,-0.298 0.21,-0.305 0.263,-0.305L0.431,-0.305L0.431,-0.236L0.267,-0.236C0.219,-0.236 0.187,-0.228 0.17,-0.212C0.153,-0.196 0.145,-0.177 0.145,-0.154C0.145,-0.128 0.155,-0.107 0.176,-0.091C0.197,-0.076 0.226,-0.068 0.262,-0.068C0.298,-0.068 0.33,-0.076 0.357,-0.092C0.384,-0.108 0.403,-0.132 0.415,-0.162L0.434,-0.096C0.421,-0.064 0.399,-0.04 0.367,-0.021C0.335,-0.003 0.295,0.006 0.246,0.006Z" style="fill:rgb(219,112,112);fill-rule:nonzero;"/>
                </g>
                <g transform="matrix(241.159,0,0,241.159,4002.55,441.694)">
                    <rect x="0.091" y="-0.742" width="0.096" height="0.742" style="fill:rgb(219,112,112);fill-rule:nonzero;"/>
                </g>
            </g>
            <g transform="matrix(1.01564,0,0,1.01564,-31.7451,10.1733)">
                <g transform="matrix(241.159,0,0,241.159,477.53,441.694)">
                    <path d="M0.094,-0L0.094,-0.7L0.605,-0.7L0.605,-0.591L0.224,-0.591L0.224,-0.109L0.619,-0.109L0.619,-0L0.094,-0ZM0.214,-0.302L0.214,-0.409L0.562,-0.409L0.562,-0.302L0.214,-0.302Z" style="fill:rgb(219,112,112);fill-rule:nonzero;"/>
                </g>
                <g transform="matrix(241.159,0,0,241.159,635.007,441.694)">
                    <path d="M0.224,-0L-0.005,-0.534L0.125,-0.534L0.322,-0.063L0.258,-0.063L0.462,-0.534L0.582,-0.534L0.353,-0L0.224,-0Z" style="fill:rgb(219,112,112);fill-rule:nonzero;"/>
                </g>
                <g transform="matrix(241.159,0,0,241.159,753.898,441.694)">
                    <path d="M0.322,0.007C0.268,0.007 0.219,-0.005 0.176,-0.029C0.133,-0.052 0.099,-0.085 0.075,-0.126C0.05,-0.167 0.038,-0.214 0.038,-0.267C0.038,-0.321 0.05,-0.368 0.075,-0.409C0.1,-0.45 0.133,-0.482 0.176,-0.505C0.219,-0.529 0.267,-0.54 0.322,-0.54C0.377,-0.54 0.427,-0.529 0.47,-0.505C0.512,-0.482 0.546,-0.45 0.571,-0.409C0.595,-0.368 0.607,-0.321 0.607,-0.267C0.607,-0.214 0.595,-0.167 0.571,-0.126C0.546,-0.084 0.513,-0.052 0.469,-0.029C0.426,-0.005 0.377,0.007 0.322,0.007ZM0.322,-0.1C0.353,-0.1 0.38,-0.107 0.404,-0.12C0.428,-0.134 0.447,-0.153 0.46,-0.178C0.474,-0.204 0.481,-0.233 0.481,-0.267C0.481,-0.302 0.474,-0.331 0.46,-0.356C0.447,-0.381 0.428,-0.4 0.404,-0.414C0.38,-0.427 0.353,-0.434 0.323,-0.434C0.293,-0.434 0.266,-0.427 0.242,-0.414C0.218,-0.4 0.199,-0.381 0.185,-0.356C0.171,-0.331 0.164,-0.302 0.164,-0.267C0.164,-0.233 0.171,-0.204 0.185,-0.178C0.199,-0.153 0.218,-0.134 0.242,-0.12C0.265,-0.107 0.292,-0.1 0.322,-0.1Z" style="fill:rgb(219,112,112);fill-rule:nonzero;"/>
                </g>
                <g transform="matrix(241.159,0,0,241.159,901.005,441.694)">
                    <rect x="0.082" y="-0.742" width="0.125" height="0.742" style="fill:rgb(219,112,112);fill-rule:nonzero;"/>
                </g>
                <g transform="matrix(241.159,0,0,241.159,961.295,441.694)">
                    <path d="M0.308,0.007C0.263,0.007 0.223,-0.002 0.188,-0.019C0.153,-0.035 0.126,-0.061 0.107,-0.096C0.087,-0.132 0.078,-0.176 0.078,-0.229L0.078,-0.534L0.203,-0.534L0.203,-0.246C0.203,-0.198 0.214,-0.162 0.236,-0.139C0.257,-0.115 0.288,-0.103 0.328,-0.103C0.357,-0.103 0.383,-0.109 0.405,-0.121C0.427,-0.133 0.444,-0.151 0.456,-0.175C0.468,-0.199 0.474,-0.229 0.474,-0.264L0.474,-0.534L0.599,-0.534L0.599,-0L0.48,-0L0.48,-0.144L0.501,-0.1C0.483,-0.066 0.457,-0.039 0.422,-0.021C0.388,-0.003 0.35,0.007 0.308,0.007Z" style="fill:rgb(219,112,112);fill-rule:nonzero;"/>
                </g>
                <g transform="matrix(241.159,0,0,241.159,1121.42,441.694)">
                    <path d="M0.283,0.007C0.224,0.007 0.179,-0.009 0.147,-0.039C0.115,-0.069 0.099,-0.114 0.099,-0.173L0.099,-0.652L0.224,-0.652L0.224,-0.176C0.224,-0.15 0.23,-0.131 0.243,-0.117C0.256,-0.103 0.275,-0.096 0.298,-0.096C0.326,-0.096 0.349,-0.103 0.368,-0.118L0.403,-0.029C0.388,-0.017 0.37,-0.008 0.349,-0.002C0.327,0.004 0.305,0.007 0.283,0.007ZM0.011,-0.434L0.011,-0.534L0.367,-0.534L0.367,-0.434L0.011,-0.434Z" style="fill:rgb(219,112,112);fill-rule:nonzero;"/>
                </g>
                <g transform="matrix(241.159,0,0,241.159,1214.99,441.694)">
                    <path d="M0.082,-0L0.082,-0.534L0.207,-0.534L0.207,-0L0.082,-0ZM0.145,-0.622C0.122,-0.622 0.102,-0.629 0.088,-0.644C0.073,-0.659 0.065,-0.676 0.065,-0.697C0.065,-0.718 0.073,-0.736 0.088,-0.751C0.102,-0.765 0.122,-0.772 0.145,-0.772C0.168,-0.772 0.188,-0.765 0.203,-0.752C0.218,-0.738 0.225,-0.721 0.225,-0.7C0.225,-0.678 0.218,-0.66 0.203,-0.645C0.188,-0.63 0.169,-0.622 0.145,-0.622Z" style="fill:rgb(219,112,112);fill-rule:nonzero;"/>
                </g>
                <g transform="matrix(241.159,0,0,241.159,1275.28,441.694)">
                    <path d="M0.322,0.007C0.268,0.007 0.219,-0.005 0.176,-0.029C0.133,-0.052 0.099,-0.085 0.075,-0.126C0.05,-0.167 0.038,-0.214 0.038,-0.267C0.038,-0.321 0.05,-0.368 0.075,-0.409C0.1,-0.45 0.133,-0.482 0.176,-0.505C0.219,-0.529 0.267,-0.54 0.322,-0.54C0.377,-0.54 0.427,-0.529 0.47,-0.505C0.512,-0.482 0.546,-0.45 0.571,-0.409C0.595,-0.368 0.607,-0.321 0.607,-0.267C0.607,-0.214 0.595,-0.167 0.571,-0.126C0.546,-0.084 0.513,-0.052 0.469,-0.029C0.426,-0.005 0.377,0.007 0.322,0.007ZM0.322,-0.1C0.353,-0.1 0.38,-0.107 0.404,-0.12C0.428,-0.134 0.447,-0.153 0.46,-0.178C0.474,-0.204 0.481,-0.233 0.481,-0.267C0.481,-0.302 0.474,-0.331 0.46,-0.356C0.447,-0.381 0.428,-0.4 0.404,-0.414C0.38,-0.427 0.353,-0.434 0.323,-0.434C0.293,-0.434 0.266,-0.427 0.242,-0.414C0.218,-0.4 0.199,-0.381 0.185,-0.356C0.171,-0.331 0.164,-0.302 0.164,-0.267C0.164,-0.233 0.171,-0.204 0.185,-0.178C0.199,-0.153 0.218,-0.134 0.242,-0.12C0.265,-0.107 0.292,-0.1 0.322,-0.1Z" style="fill:rgb(219,112,112);fill-rule:nonzero;"/>
                </g>
                <g transform="matrix(241.159,0,0,241.159,1422.39,441.694)">
                    <path d="M0.082,-0L0.082,-0.534L0.201,-0.534L0.201,-0.39L0.18,-0.434C0.199,-0.468 0.226,-0.495 0.261,-0.513C0.297,-0.531 0.338,-0.54 0.385,-0.54C0.428,-0.54 0.466,-0.532 0.5,-0.515C0.533,-0.499 0.559,-0.473 0.579,-0.439C0.598,-0.404 0.608,-0.36 0.608,-0.306L0.608,-0L0.483,-0L0.483,-0.29C0.483,-0.337 0.472,-0.372 0.45,-0.396C0.427,-0.419 0.396,-0.431 0.356,-0.431C0.327,-0.431 0.301,-0.425 0.278,-0.413C0.255,-0.401 0.238,-0.383 0.226,-0.359C0.213,-0.336 0.207,-0.306 0.207,-0.27L0.207,-0L0.082,-0Z" style="fill:rgb(219,112,112);fill-rule:nonzero;"/>
                </g>
            </g>
        </g>
    </g>
</svg>
