<svg version="1.1" id="Layer_1" xmlns="http://www.w3.org/2000/svg" xmlns:xlink="http://www.w3.org/1999/xlink" x="0px" y="0px"
	 width="100%" viewBox="0 0 478 478" enable-background="new 0 0 478 478" xml:space="preserve">
<path fill="#4C9AC6" opacity="1.000000" stroke="none" 
	d="
M281.000000,479.000000 
	C187.333328,479.000000 94.166664,479.000000 1.000000,479.000000 
	C1.000000,319.666656 1.000000,160.333328 1.000000,1.000000 
	C160.333328,1.000000 319.666656,1.000000 479.000000,1.000000 
	C479.000000,160.333328 479.000000,319.666656 479.000000,479.000000 
	C413.166656,479.000000 347.333344,479.000000 281.000000,479.000000 
M234.101746,47.112000 
	C234.267990,47.287479 234.434250,47.462963 234.177017,48.152245 
	C227.123703,56.072994 225.663315,61.519188 228.593414,68.190529 
	C231.936752,62.631443 235.386169,56.895947 238.835602,51.160454 
	C239.167786,51.381107 239.499954,51.601757 239.832138,51.822411 
	C239.010498,63.193340 238.188858,74.564270 237.353027,86.131683 
	C216.527344,86.735069 196.525360,90.580246 177.379807,98.467888 
	C158.192001,106.372925 141.040207,117.365898 126.344856,132.659683 
	C131.696365,132.863937 137.057144,132.931686 141.905090,131.388428 
	C150.033279,128.800949 157.805634,128.455490 165.797806,131.489136 
	C172.098724,133.880829 178.540268,133.885239 184.843033,131.500366 
	C192.834534,128.476501 200.701172,128.469147 208.701416,131.506821 
	C214.992142,133.895386 221.435608,133.875473 227.746017,131.481628 
	C235.733871,128.451431 243.608475,128.491455 251.609009,131.521698 
	C257.899414,133.904221 264.343719,133.864075 270.654572,131.465988 
	C278.643463,128.430252 286.353668,129.203003 294.571136,131.303085 
	C300.406067,132.794281 307.245697,132.918015 313.040985,131.390793 
	C321.431763,129.179565 329.270691,128.397110 337.409790,131.583603 
	C342.736877,133.669174 348.153717,133.482315 354.677032,132.265396 
	C323.102478,102.977776 286.851410,88.061493 244.413818,86.130440 
	C244.413818,74.970604 244.413818,64.134445 244.413818,53.080620 
	C246.555511,56.928772 248.488922,60.402679 250.422333,63.876591 
	C251.045975,63.673740 251.669617,63.470890 252.293259,63.268044 
	C252.038101,58.529053 251.782928,53.790062 251.508240,48.688595 
	C258.434479,52.865685 265.150604,56.916058 272.287903,61.220440 
	C270.895935,51.881306 265.216827,46.223259 256.677094,41.188423 
	C264.572418,39.702602 271.123779,38.469707 277.605255,37.249962 
	C271.699677,30.170944 264.034546,29.759186 248.862137,35.989750 
	C250.700439,32.306244 252.402695,28.895336 254.254486,25.184784 
	C247.529877,25.786839 244.744675,28.928736 242.588669,37.642895 
	C234.490509,32.007595 229.406067,31.261639 222.937820,34.672283 
	C227.693497,36.353188 232.558533,38.072742 237.423569,39.792301 
	C223.430389,42.211060 215.371460,48.695896 214.838837,57.951061 
	C220.882706,54.289925 227.244476,50.436222 234.101746,47.112000 
M159.238373,396.264435 
	C194.087006,415.559631 231.295410,421.925873 270.275787,414.403656 
	C348.347168,399.337830 402.746674,335.634979 405.355499,256.186340 
	C406.840118,210.973770 391.307312,171.664932 360.569885,138.474304 
	C359.363190,137.171265 356.602448,136.509964 354.730194,136.763458 
	C347.854950,137.694366 341.225128,137.775894 334.593201,135.173218 
	C328.507568,132.784927 322.129974,132.871979 316.011475,135.163040 
	C308.010406,138.159012 300.157928,138.253113 292.146332,135.271545 
	C285.675110,132.863235 279.101044,132.942307 272.604523,135.345566 
	C264.788635,138.236908 257.049866,138.191193 249.216400,135.247025 
	C242.925110,132.882462 236.453369,132.865234 230.146606,135.215836 
	C222.149521,138.196411 214.297134,138.217804 206.284073,135.217560 
	C199.997925,132.863922 193.526749,132.885223 187.214050,135.244965 
	C179.218933,138.233597 171.507736,137.503204 163.290680,135.438309 
	C157.442215,133.968628 150.929565,134.833008 144.736252,135.131470 
	C138.515106,135.431290 132.273544,137.069229 126.135582,136.669006 
	C122.479027,136.430588 120.453842,137.083557 118.130913,139.608246 
	C45.924202,218.086411 65.508018,342.332520 159.238373,396.264435 
z"/>
<path fill="#F6D801" opacity="1.000000" stroke="none" 
	d="
M158.911774,396.098816 
	C65.508018,342.332520 45.924202,218.086411 118.130913,139.608246 
	C120.453842,137.083557 122.479027,136.430588 126.135582,136.669006 
	C132.273544,137.069229 138.515106,135.431290 144.736252,135.131470 
	C150.929565,134.833008 157.442215,133.968628 163.290680,135.438309 
	C171.507736,137.503204 179.218933,138.233597 187.214050,135.244965 
	C193.526749,132.885223 199.997925,132.863922 206.284073,135.217560 
	C214.297134,138.217804 222.149521,138.196411 230.146606,135.215836 
	C236.453369,132.865234 242.925110,132.882462 249.216400,135.247025 
	C257.049866,138.191193 264.788635,138.236908 272.604523,135.345566 
	C279.101044,132.942307 285.675110,132.863235 292.146332,135.271545 
	C300.157928,138.253113 308.010406,138.159012 316.011475,135.163040 
	C322.129974,132.871979 328.507568,132.784927 334.593201,135.173218 
	C341.225128,137.775894 347.854950,137.694366 354.730194,136.763458 
	C356.602448,136.509964 359.363190,137.171265 360.569885,138.474304 
	C391.307312,171.664932 406.840118,210.973770 405.355499,256.186340 
	C402.746674,335.634979 348.347168,399.337830 270.275787,414.403656 
	C231.295410,421.925873 194.087006,415.559631 158.911774,396.098816 
M226.044922,215.672653 
	C227.623032,216.195358 229.181351,216.790161 230.782349,217.229431 
	C244.641479,221.032089 259.377930,216.027756 268.219757,204.545517 
	C276.986328,193.161057 278.004028,177.510132 270.784943,165.097992 
	C263.535431,152.633530 249.476608,145.760788 235.274826,147.738724 
	C219.824097,149.890579 207.335526,161.865585 204.982086,176.785767 
	C202.381332,193.273941 209.964325,207.600510 226.044922,215.672653 
M317.989166,271.748230 
	C319.562225,271.211212 321.165100,270.747986 322.703674,270.125732 
	C337.297119,264.223755 346.195953,249.721176 344.900604,234.002304 
	C343.636383,218.661346 331.961304,205.558365 316.662109,202.310242 
	C301.678192,199.129044 285.848358,206.165787 278.464752,219.797623 
	C271.512848,232.632462 271.949982,245.593170 280.411346,257.509521 
	C289.352478,270.101532 301.939026,274.724640 317.989166,271.748230 
M136.014267,228.769424 
	C135.811630,229.747543 135.575714,230.720093 135.411392,231.704605 
	C133.116562,245.453979 139.565796,259.929199 151.719894,267.245544 
	C164.803009,275.121124 178.030823,274.829834 190.747925,266.383606 
	C202.623764,258.496124 208.362015,243.848389 205.438522,230.158600 
	C202.025925,214.178391 188.877716,202.683197 172.951065,201.755539 
	C155.717773,200.751785 142.016266,210.516510 136.014267,228.769424 
M173.969711,347.566040 
	C187.952972,358.416809 205.001358,359.015259 218.326141,349.123169 
	C231.066132,339.665253 235.984436,322.935028 230.395615,308.067505 
	C225.329117,294.589478 212.481796,285.379089 198.246552,285.019470 
	C183.439346,284.645386 169.901047,293.358948 164.258057,306.895233 
	C158.465164,320.791107 161.881180,335.759552 173.969711,347.566040 
M315.410614,306.237457 
	C314.637726,304.766998 313.952026,303.242462 313.078369,301.834564 
	C305.468903,289.571991 290.827179,282.941254 277.077362,285.489777 
	C262.205109,288.246338 250.700562,299.348267 248.016281,313.533844 
	C245.192673,328.455719 251.578812,343.074310 264.343475,350.908752 
	C277.206848,358.803772 293.676239,357.672821 305.423889,348.087830 
	C317.533234,338.207703 321.386810,322.870728 315.410614,306.237457 
M245.104523,236.093979 
	C235.338303,233.958725 227.045532,238.188507 224.332153,246.689072 
	C221.747284,254.786957 225.783157,263.578857 233.611435,266.903473 
	C241.776505,270.371124 251.249802,266.667725 254.970428,258.553589 
	C258.898865,249.986267 255.266266,241.154037 245.104523,236.093979 
z"/>
<path fill="#F4D703" opacity="1.000000" stroke="none" 
	d="
M233.606247,46.582520 
	C227.244476,50.436222 220.882706,54.289925 214.838837,57.951061 
	C215.371460,48.695896 223.430389,42.211060 237.423569,39.792301 
	C232.558533,38.072742 227.693497,36.353188 222.937820,34.672283 
	C229.406067,31.261639 234.490509,32.007595 242.588669,37.642895 
	C244.744675,28.928736 247.529877,25.786839 254.254486,25.184784 
	C252.402695,28.895336 250.700439,32.306244 248.862137,35.989750 
	C264.034546,29.759186 271.699677,30.170944 277.605255,37.249962 
	C271.123779,38.469707 264.572418,39.702602 256.677094,41.188423 
	C265.216827,46.223259 270.895935,51.881306 272.287903,61.220440 
	C265.150604,56.916058 258.434479,52.865685 251.508240,48.688595 
	C251.782928,53.790062 252.038101,58.529053 252.293259,63.268044 
	C251.669617,63.470890 251.045975,63.673740 250.422333,63.876591 
	C248.488922,60.402679 246.555511,56.928772 244.413818,53.080620 
	C244.413818,64.134445 244.413818,74.970604 244.413818,86.130440 
	C286.851410,88.061493 323.102478,102.977776 354.677032,132.265396 
	C348.153717,133.482315 342.736877,133.669174 337.409790,131.583603 
	C329.270691,128.397110 321.431763,129.179565 313.040985,131.390793 
	C307.245697,132.918015 300.406067,132.794281 294.571136,131.303085 
	C286.353668,129.203003 278.643463,128.430252 270.654572,131.465988 
	C264.343719,133.864075 257.899414,133.904221 251.609009,131.521698 
	C243.608475,128.491455 235.733871,128.451431 227.746017,131.481628 
	C221.435608,133.875473 214.992142,133.895386 208.701416,131.506821 
	C200.701172,128.469147 192.834534,128.476501 184.843033,131.500366 
	C178.540268,133.885239 172.098724,133.880829 165.797806,131.489136 
	C157.805634,128.455490 150.033279,128.800949 141.905090,131.388428 
	C137.057144,132.931686 131.696365,132.863937 126.344856,132.659683 
	C141.040207,117.365898 158.192001,106.372925 177.379807,98.467888 
	C196.525360,90.580246 216.527344,86.735069 237.353027,86.131683 
	C238.188858,74.564270 239.010498,63.193340 239.832138,51.822411 
	C239.499954,51.601757 239.167786,51.381107 238.835602,51.160454 
	C235.386169,56.895947 231.936752,62.631443 228.593414,68.190529 
	C225.663315,61.519188 227.123703,56.072994 234.639618,47.730049 
	C235.274033,46.963253 235.445847,46.618656 235.617661,46.274063 
	C234.947189,46.376884 234.276718,46.479702 233.606247,46.582520 
z"/>
<path fill="#4C9AC6" opacity="1.000000" stroke="none" 
	d="
M225.707703,215.489136 
	C209.964325,207.600510 202.381332,193.273941 204.982086,176.785767 
	C207.335526,161.865585 219.824097,149.890579 235.274826,147.738724 
	C249.476608,145.760788 263.535431,152.633530 270.784943,165.097992 
	C278.004028,177.510132 276.986328,193.161057 268.219757,204.545517 
	C259.377930,216.027756 244.641479,221.032089 230.782349,217.229431 
	C229.181351,216.790161 227.623032,216.195358 225.707703,215.489136 
z"/>
<path fill="#4C9AC6" opacity="1.000000" stroke="none" 
	d="
M317.583557,271.833069 
	C301.939026,274.724640 289.352478,270.101532 280.411346,257.509521 
	C271.949982,245.593170 271.512848,232.632462 278.464752,219.797623 
	C285.848358,206.165787 301.678192,199.129044 316.662109,202.310242 
	C331.961304,205.558365 343.636383,218.661346 344.900604,234.002304 
	C346.195953,249.721176 337.297119,264.223755 322.703674,270.125732 
	C321.165100,270.747986 319.562225,271.211212 317.583557,271.833069 
z"/>
<path fill="#4C9AC6" opacity="1.000000" stroke="none" 
	d="
M136.096939,228.365540 
	C142.016266,210.516510 155.717773,200.751785 172.951065,201.755539 
	C188.877716,202.683197 202.025925,214.178391 205.438522,230.158600 
	C208.362015,243.848389 202.623764,258.496124 190.747925,266.383606 
	C178.030823,274.829834 164.803009,275.121124 151.719894,267.245544 
	C139.565796,259.929199 133.116562,245.453979 135.411392,231.704605 
	C135.575714,230.720093 135.811630,229.747543 136.096939,228.365540 
z"/>
<path fill="#4C9AC6" opacity="1.000000" stroke="none" 
	d="
M173.700684,347.329376 
	C161.881180,335.759552 158.465164,320.791107 164.258057,306.895233 
	C169.901047,293.358948 183.439346,284.645386 198.246552,285.019470 
	C212.481796,285.379089 225.329117,294.589478 230.395615,308.067505 
	C235.984436,322.935028 231.066132,339.665253 218.326141,349.123169 
	C205.001358,359.015259 187.952972,358.416809 173.700684,347.329376 
z"/>
<path fill="#4C9AC6" opacity="1.000000" stroke="none" 
	d="
M315.587921,306.583557 
	C321.386810,322.870728 317.533234,338.207703 305.423889,348.087830 
	C293.676239,357.672821 277.206848,358.803772 264.343475,350.908752 
	C251.578812,343.074310 245.192673,328.455719 248.016281,313.533844 
	C250.700562,299.348267 262.205109,288.246338 277.077362,285.489777 
	C290.827179,282.941254 305.468903,289.571991 313.078369,301.834564 
	C313.952026,303.242462 314.637726,304.766998 315.587921,306.583557 
z"/>
<path fill="#4C9AC6" opacity="1.000000" stroke="none" 
	d="
M245.471085,236.221146 
	C255.266266,241.154037 258.898865,249.986267 254.970428,258.553589 
	C251.249802,266.667725 241.776505,270.371124 233.611435,266.903473 
	C225.783157,263.578857 221.747284,254.786957 224.332153,246.689072 
	C227.045532,238.188507 235.338303,233.958725 245.471085,236.221146 
z"/>
<path fill="#4C9AC6" opacity="1.000000" stroke="none" 
	d="
M233.854004,46.847260 
	C234.276718,46.479702 234.947189,46.376884 235.617661,46.274063 
	C235.445847,46.618656 235.274033,46.963253 234.851349,47.473145 
	C234.434250,47.462963 234.267990,47.287479 233.854004,46.847260 
z"/>
</svg>