<?xml version="1.0" encoding="UTF-8" standalone="no"?><!DOCTYPE svg PUBLIC "-//W3C//DTD SVG 1.1//EN" "http://www.w3.org/Graphics/SVG/1.1/DTD/svg11.dtd"><svg width="100%" height="100%" viewBox="0 0 3168 857" version="1.1" xmlns="http://www.w3.org/2000/svg" xmlns:xlink="http://www.w3.org/1999/xlink" xml:space="preserve" xmlns:serif="http://www.serif.com/" style="fill-rule:evenodd;clip-rule:evenodd;stroke-linejoin:round;stroke-miterlimit:2;"><rect id="Artboard1" x="0" y="0" width="3167.45" height="856.242" style="fill:none;"/><g id="Layer1"><path d="M62.338,623.404l-0,-271.231l50.313,0l112.213,191.569l-26.586,-0l110.114,-191.569l50.318,0l0.524,271.231l-57.083,-0l-0.524,-180.762l10.752,-0l-88.186,151.907l-27.338,0l-90.068,-151.907l12.634,-0l-0,180.762l-57.083,-0Z" style="fill:#dd1b72;fill-rule:nonzero;"/><path d="M542.129,623.404l-0,-40.624l-3.523,-9.142l-0,-72.694c-0,-12.984 -3.832,-23.045 -11.496,-30.183c-7.664,-7.138 -19.457,-10.707 -35.377,-10.707c-10.65,-0 -21.197,1.718 -31.641,5.155c-10.444,3.437 -19.358,8.128 -26.741,14.073l-20.969,-42.065c11.136,-8.217 24.468,-14.47 39.996,-18.759c15.528,-4.288 31.323,-6.432 47.384,-6.432c30.993,-0 55.003,7.474 72.029,22.422c17.026,14.947 25.538,38.245 25.538,69.893l0,119.063l-55.2,-0Zm-61.53,2.942c-15.751,-0 -29.274,-2.738 -40.567,-8.213c-11.293,-5.475 -19.939,-12.99 -25.938,-22.546c-6,-9.555 -9,-20.325 -9,-32.308c0,-12.286 2.933,-23.092 8.8,-32.418c5.866,-9.325 15.195,-16.637 27.988,-21.934c12.793,-5.298 29.477,-7.946 50.051,-7.946l53.59,-0l-0,35.223l-47.078,0c-13.882,0 -23.385,2.304 -28.51,6.911c-5.125,4.607 -7.687,10.505 -7.687,17.694c-0,7.555 2.917,13.611 8.752,18.165c5.835,4.555 13.858,6.833 24.068,6.833c9.862,-0 18.716,-2.355 26.563,-7.066c7.846,-4.71 13.504,-11.799 16.975,-21.268l8.869,28.067c-4.168,13.263 -11.902,23.38 -23.201,30.35c-11.298,6.971 -25.857,10.456 -43.675,10.456Z" style="fill:#dd1b72;fill-rule:nonzero;"/><rect x="634.285" y="335.9" width="58.724" height="287.504" style="fill:#dd1b72;fill-rule:nonzero;"/><rect x="728.394" y="335.9" width="58.724" height="287.504" style="fill:#dd1b72;fill-rule:nonzero;"/><path d="M918.57,626.346c-21.453,-0 -40.524,-4.598 -57.215,-13.795c-16.691,-9.196 -29.839,-21.88 -39.446,-38.051c-9.607,-16.171 -14.411,-34.649 -14.411,-55.435c0,-20.944 4.818,-39.452 14.455,-55.524c9.636,-16.072 22.768,-28.676 39.396,-37.812c16.628,-9.135 35.702,-13.703 57.221,-13.703c21.524,-0 40.666,4.563 57.427,13.688c16.762,9.126 29.894,21.716 39.397,37.77c9.503,16.054 14.254,34.583 14.254,55.587c0,20.838 -4.741,39.329 -14.225,55.472c-9.483,16.142 -22.634,28.812 -39.452,38.008c-16.818,9.197 -35.952,13.795 -57.401,13.795Zm0,-49.494c9.909,0 18.736,-2.29 26.48,-6.871c7.745,-4.581 13.88,-11.244 18.407,-19.988c4.527,-8.745 6.791,-19.05 6.791,-30.916c-0,-12.084 -2.264,-22.409 -6.791,-30.974c-4.527,-8.564 -10.662,-15.137 -18.407,-19.718c-7.744,-4.581 -16.532,-6.872 -26.362,-6.872c-9.834,0 -18.624,2.291 -26.368,6.872c-7.745,4.581 -13.918,11.154 -18.519,19.718c-4.602,8.565 -6.902,18.89 -6.902,30.974c-0,11.866 2.3,22.171 6.902,30.916c4.601,8.744 10.77,15.407 18.504,19.988c7.735,4.581 16.49,6.871 26.265,6.871Z" style="fill:#dd1b72;fill-rule:nonzero;"/><path d="M1052.13,623.404l-0,-208.442l55.947,-0l0,59.023l-7.723,-17.043c5.969,-14.817 15.589,-26.007 28.862,-33.571c13.274,-7.563 29.498,-11.345 48.672,-11.345l0,55.747c-2.556,-0.359 -4.861,-0.628 -6.914,-0.808c-2.052,-0.18 -4.13,-0.27 -6.231,-0.27c-16.281,0 -29.333,4.748 -39.156,14.243c-9.822,9.495 -14.734,24.196 -14.734,44.102l0,98.364l-58.723,-0Z" style="fill:#dd1b72;fill-rule:nonzero;"/><path d="M1288.38,626.346c-21.774,-0 -41.177,-4.572 -58.209,-13.716c-17.032,-9.144 -30.377,-21.813 -40.035,-38.009c-9.658,-16.195 -14.487,-34.699 -14.487,-55.514c0,-20.972 4.829,-39.49 14.487,-55.554c9.658,-16.064 23.003,-28.668 40.035,-37.811c17.032,-9.144 36.435,-13.716 58.209,-13.716c21.308,-0 39.887,4.54 55.736,13.622c15.85,9.081 27.466,22.112 34.85,39.092l-45.208,25.373c-5.478,-9.816 -12.161,-17.036 -20.051,-21.662c-7.889,-4.625 -16.457,-6.938 -25.703,-6.938c-9.909,0 -18.887,2.291 -26.933,6.872c-8.046,4.581 -14.395,11.154 -19.045,19.718c-4.651,8.565 -6.976,18.9 -6.976,31.004c-0,12.105 2.325,22.464 6.976,31.08c4.65,8.615 10.999,15.213 19.045,19.794c8.046,4.581 17.024,6.871 26.933,6.871c9.246,0 17.814,-2.273 25.703,-6.82c7.89,-4.546 14.573,-11.806 20.051,-21.78l45.208,25.374c-7.384,16.826 -19,29.82 -34.85,38.98c-15.849,9.16 -34.428,13.74 -55.736,13.74Z" style="fill:#dd1b72;fill-rule:nonzero;"/><path d="M1519.73,623.404l0,-40.624l-3.523,-9.142l0,-72.694c0,-12.984 -3.832,-23.045 -11.496,-30.183c-7.664,-7.138 -19.456,-10.707 -35.376,-10.707c-10.65,-0 -21.197,1.718 -31.641,5.155c-10.444,3.437 -19.358,8.128 -26.742,14.073l-20.969,-42.065c11.137,-8.217 24.469,-14.47 39.997,-18.759c15.528,-4.288 31.322,-6.432 47.384,-6.432c30.993,-0 55.002,7.474 72.028,22.422c17.026,14.947 25.539,38.245 25.539,69.893l0,119.063l-55.201,-0Zm-61.529,2.942c-15.752,-0 -29.274,-2.738 -40.567,-8.213c-11.293,-5.475 -19.94,-12.99 -25.939,-22.546c-5.999,-9.555 -8.999,-20.325 -8.999,-32.308c-0,-12.286 2.933,-23.092 8.799,-32.418c5.866,-9.325 15.196,-16.637 27.989,-21.934c12.793,-5.298 29.476,-7.946 50.051,-7.946l53.589,-0l0,35.223l-47.078,0c-13.881,0 -23.384,2.304 -28.509,6.911c-5.125,4.607 -7.688,10.505 -7.688,17.694c0,7.555 2.918,13.611 8.753,18.165c5.834,4.555 13.857,6.833 24.068,6.833c9.862,-0 18.716,-2.355 26.562,-7.066c7.846,-4.71 13.505,-11.799 16.975,-21.268l8.87,28.067c-4.168,13.263 -11.902,23.38 -23.201,30.35c-11.299,6.971 -25.857,10.456 -43.675,10.456Z" style="fill:#dd1b72;fill-rule:nonzero;"/><g transform="matrix(0.323914,0,0,0.323914,85.7031,653.261)"><g transform="matrix(592.75,0,0,592.75,477.53,441.694)"><path d="M0.166,-0l-0,-0.66l0.043,0.047l-0.201,-0l0,-0.087l0.257,-0l-0,0.7l-0.099,-0Z" style="fill:#dd1b72;fill-rule:nonzero;"/></g><g transform="matrix(592.75,0,0,592.75,680.251,441.694)"><path d="M0.038,-0.172l-0,-0.07l0.358,-0.458l0.108,0l-0.355,0.458l-0.051,-0.016l0.559,-0l-0,0.086l-0.619,0Zm0.389,0.172l0,-0.172l0.003,-0.086l-0,-0.152l0.094,0l0,0.41l-0.097,-0Z" style="fill:#dd1b72;fill-rule:nonzero;"/></g><g transform="matrix(592.75,0,0,592.75,1061.98,441.694)"><path d="M0.273,0.006c-0.053,-0 -0.095,-0.015 -0.124,-0.043c-0.029,-0.028 -0.044,-0.07 -0.044,-0.123l0,-0.486l0.096,-0l0,0.482c0,0.029 0.007,0.05 0.022,0.066c0.014,0.015 0.035,0.023 0.061,0.023c0.03,-0 0.055,-0.008 0.075,-0.025l0.03,0.069c-0.015,0.012 -0.032,0.022 -0.053,0.028c-0.02,0.006 -0.041,0.009 -0.063,0.009Zm-0.258,-0.457l-0,-0.079l0.338,0l0,0.079l-0.338,0Z" style="fill:#dd1b72;fill-rule:nonzero;"/></g><g transform="matrix(592.75,0,0,592.75,1291.97,441.694)"><path d="M0.091,-0l0,-0.742l0.096,0l0,0.355l-0.019,-0.038c0.017,-0.035 0.044,-0.062 0.08,-0.081c0.036,-0.02 0.078,-0.029 0.126,-0.029c0.043,-0 0.081,0.008 0.114,0.025c0.033,0.016 0.059,0.042 0.078,0.076c0.019,0.034 0.028,0.077 0.028,0.129l0,0.305l-0.096,-0l0,-0.294c0,-0.052 -0.012,-0.09 -0.037,-0.116c-0.025,-0.026 -0.061,-0.039 -0.106,-0.039c-0.034,-0 -0.063,0.006 -0.089,0.02c-0.025,0.013 -0.044,0.033 -0.058,0.059c-0.014,0.026 -0.021,0.058 -0.021,0.097l0,0.273l-0.096,-0Z" style="fill:#dd1b72;fill-rule:nonzero;"/></g><g transform="matrix(592.75,0,0,592.75,1836.11,441.694)"><rect x="0.094" y="-0.7" width="0.13" height="0.7" style="fill:#dd1b72;fill-rule:nonzero;"/></g><g transform="matrix(592.75,0,0,592.75,2005.64,441.694)"><path d="M0.082,-0l0,-0.534l0.119,0l0,0.144l-0.021,-0.044c0.019,-0.034 0.046,-0.061 0.081,-0.079c0.036,-0.018 0.077,-0.027 0.124,-0.027c0.043,-0 0.081,0.008 0.115,0.025c0.033,0.016 0.059,0.042 0.079,0.076c0.019,0.035 0.029,0.079 0.029,0.133l-0,0.306l-0.125,-0l-0,-0.29c-0,-0.047 -0.011,-0.082 -0.033,-0.106c-0.023,-0.023 -0.054,-0.035 -0.094,-0.035c-0.029,0 -0.055,0.006 -0.078,0.018c-0.023,0.012 -0.04,0.03 -0.052,0.054c-0.013,0.023 -0.019,0.053 -0.019,0.089l0,0.27l-0.125,-0Z" style="fill:#dd1b72;fill-rule:nonzero;"/></g><g transform="matrix(592.75,0,0,592.75,2401.6,441.694)"><path d="M0.283,0.007c-0.059,-0 -0.104,-0.016 -0.136,-0.046c-0.032,-0.03 -0.048,-0.075 -0.048,-0.134l-0,-0.479l0.125,0l-0,0.476c-0,0.026 0.006,0.045 0.019,0.059c0.013,0.014 0.032,0.021 0.055,0.021c0.028,0 0.051,-0.007 0.07,-0.022l0.035,0.089c-0.015,0.012 -0.033,0.021 -0.054,0.027c-0.022,0.006 -0.044,0.009 -0.066,0.009Zm-0.272,-0.441l0,-0.1l0.356,0l-0,0.1l-0.356,-0Z" style="fill:#dd1b72;fill-rule:nonzero;"/></g><g transform="matrix(592.75,0,0,592.75,2619.73,441.694)"><path d="M0.333,0.007c-0.059,-0 -0.111,-0.012 -0.156,-0.036c-0.044,-0.023 -0.078,-0.056 -0.103,-0.097c-0.024,-0.041 -0.036,-0.088 -0.036,-0.141c-0,-0.053 0.011,-0.1 0.035,-0.141c0.024,-0.042 0.057,-0.074 0.099,-0.097c0.041,-0.024 0.089,-0.035 0.142,-0.035c0.052,-0 0.098,0.011 0.139,0.034c0.041,0.023 0.073,0.055 0.096,0.096c0.023,0.041 0.035,0.09 0.035,0.146c0,0.006 -0,0.011 -0,0.018c-0.001,0.007 -0.001,0.013 -0.002,0.019l-0.445,-0l0,-0.083l0.379,0l-0.049,0.026c0,-0.03 -0.006,-0.057 -0.019,-0.081c-0.013,-0.023 -0.031,-0.041 -0.054,-0.055c-0.023,-0.013 -0.05,-0.02 -0.08,-0.02c-0.03,0 -0.057,0.007 -0.08,0.02c-0.024,0.014 -0.042,0.032 -0.055,0.056c-0.012,0.024 -0.019,0.051 -0.019,0.083l0,0.02c0,0.032 0.007,0.06 0.022,0.085c0.015,0.024 0.035,0.043 0.062,0.057c0.026,0.014 0.057,0.02 0.092,0.02c0.03,0 0.057,-0.004 0.081,-0.014c0.024,-0.01 0.045,-0.024 0.064,-0.044l0.067,0.077c-0.024,0.028 -0.054,0.05 -0.091,0.064c-0.036,0.015 -0.078,0.023 -0.124,0.023Z" style="fill:#dd1b72;fill-rule:nonzero;"/></g><g transform="matrix(592.75,0,0,592.75,2967.67,441.694)"><path d="M0.082,-0l0,-0.534l0.119,0l0,0.147l-0.014,-0.043c0.016,-0.036 0.041,-0.064 0.076,-0.082c0.034,-0.019 0.077,-0.028 0.128,-0.028l-0,0.119c-0.006,-0.001 -0.011,-0.002 -0.015,-0.002c-0.005,-0 -0.009,-0.001 -0.014,-0.001c-0.047,0 -0.085,0.014 -0.113,0.042c-0.028,0.027 -0.042,0.068 -0.042,0.123l0,0.259l-0.125,0Z" style="fill:#dd1b72;fill-rule:nonzero;"/></g><g transform="matrix(592.75,0,0,592.75,3188.77,441.694)"><path d="M0.082,-0l0,-0.534l0.119,0l0,0.144l-0.021,-0.044c0.019,-0.034 0.046,-0.061 0.081,-0.079c0.036,-0.018 0.077,-0.027 0.124,-0.027c0.043,-0 0.081,0.008 0.115,0.025c0.033,0.016 0.059,0.042 0.079,0.076c0.019,0.035 0.029,0.079 0.029,0.133l-0,0.306l-0.125,-0l-0,-0.29c-0,-0.047 -0.011,-0.082 -0.033,-0.106c-0.023,-0.023 -0.054,-0.035 -0.094,-0.035c-0.029,0 -0.055,0.006 -0.078,0.018c-0.023,0.012 -0.04,0.03 -0.052,0.054c-0.013,0.023 -0.019,0.053 -0.019,0.089l0,0.27l-0.125,-0Z" style="fill:#dd1b72;fill-rule:nonzero;"/></g><g transform="matrix(592.75,0,0,592.75,3584.73,441.694)"><path d="M0.411,-0l-0,-0.108l-0.007,-0.023l0,-0.189c0,-0.037 -0.011,-0.065 -0.033,-0.085c-0.022,-0.021 -0.056,-0.031 -0.1,-0.031c-0.03,-0 -0.06,0.005 -0.088,0.014c-0.029,0.01 -0.054,0.022 -0.074,0.039l-0.049,-0.091c0.029,-0.022 0.063,-0.038 0.103,-0.05c0.039,-0.011 0.081,-0.016 0.123,-0.016c0.077,-0 0.137,0.018 0.18,0.055c0.042,0.037 0.063,0.094 0.063,0.172l0,0.313l-0.118,0Zm-0.168,0.007c-0.04,-0 -0.075,-0.007 -0.105,-0.021c-0.03,-0.013 -0.054,-0.032 -0.07,-0.057c-0.016,-0.024 -0.024,-0.051 -0.024,-0.082c-0,-0.03 0.007,-0.057 0.022,-0.081c0.014,-0.024 0.038,-0.043 0.07,-0.057c0.033,-0.014 0.076,-0.021 0.13,-0.021l0.155,0l-0,0.083l-0.146,-0c-0.043,-0 -0.071,0.007 -0.086,0.021c-0.015,0.013 -0.022,0.03 -0.022,0.05c-0,0.023 0.009,0.041 0.027,0.054c0.018,0.013 0.043,0.02 0.075,0.02c0.031,-0 0.058,-0.007 0.083,-0.021c0.024,-0.014 0.042,-0.034 0.052,-0.062l0.021,0.075c-0.012,0.032 -0.033,0.056 -0.064,0.073c-0.031,0.017 -0.07,0.026 -0.118,0.026Z" style="fill:#dd1b72;fill-rule:nonzero;"/></g><g transform="matrix(592.75,0,0,592.75,3924.96,441.694)"><path d="M0.283,0.007c-0.059,-0 -0.104,-0.016 -0.136,-0.046c-0.032,-0.03 -0.048,-0.075 -0.048,-0.134l-0,-0.479l0.125,0l-0,0.476c-0,0.026 0.006,0.045 0.019,0.059c0.013,0.014 0.032,0.021 0.055,0.021c0.028,0 0.051,-0.007 0.07,-0.022l0.035,0.089c-0.015,0.012 -0.033,0.021 -0.054,0.027c-0.022,0.006 -0.044,0.009 -0.066,0.009Zm-0.272,-0.441l0,-0.1l0.356,0l-0,0.1l-0.356,-0Z" style="fill:#dd1b72;fill-rule:nonzero;"/></g><g transform="matrix(592.75,0,0,592.75,4154.95,441.694)"><path d="M0.082,-0l0,-0.534l0.125,0l0,0.534l-0.125,-0Zm0.063,-0.622c-0.023,0 -0.043,-0.007 -0.058,-0.022c-0.015,-0.015 -0.022,-0.032 -0.022,-0.053c-0,-0.021 0.007,-0.039 0.022,-0.053c0.015,-0.015 0.035,-0.022 0.058,-0.022c0.023,0 0.042,0.007 0.057,0.021c0.016,0.013 0.023,0.03 0.023,0.051c0,0.022 -0.007,0.041 -0.022,0.056c-0.015,0.014 -0.034,0.022 -0.058,0.022Z" style="fill:#dd1b72;fill-rule:nonzero;"/></g><g transform="matrix(592.75,0,0,592.75,4303.14,441.694)"><path d="M0.322,0.007c-0.054,-0 -0.103,-0.012 -0.146,-0.036c-0.043,-0.023 -0.077,-0.056 -0.101,-0.097c-0.025,-0.041 -0.037,-0.088 -0.037,-0.141c-0,-0.054 0.012,-0.101 0.037,-0.142c0.025,-0.041 0.058,-0.073 0.101,-0.096c0.043,-0.024 0.091,-0.035 0.146,-0.035c0.055,-0 0.105,0.011 0.148,0.035c0.042,0.023 0.076,0.055 0.101,0.096c0.024,0.041 0.036,0.088 0.036,0.142c0,0.053 -0.012,0.1 -0.036,0.141c-0.025,0.042 -0.058,0.074 -0.102,0.097c-0.043,0.024 -0.092,0.036 -0.147,0.036Zm0,-0.107c0.031,0 0.058,-0.007 0.082,-0.02c0.024,-0.014 0.043,-0.033 0.056,-0.058c0.014,-0.026 0.021,-0.055 0.021,-0.089c0,-0.035 -0.007,-0.064 -0.021,-0.089c-0.013,-0.025 -0.032,-0.044 -0.056,-0.058c-0.024,-0.013 -0.051,-0.02 -0.081,-0.02c-0.03,-0 -0.057,0.007 -0.081,0.02c-0.024,0.014 -0.043,0.033 -0.057,0.058c-0.014,0.025 -0.021,0.054 -0.021,0.089c-0,0.034 0.007,0.063 0.021,0.089c0.014,0.025 0.033,0.044 0.057,0.058c0.023,0.013 0.05,0.02 0.08,0.02Z" style="fill:#dd1b72;fill-rule:nonzero;"/></g><g transform="matrix(592.75,0,0,592.75,4664.72,441.694)"><path d="M0.082,-0l0,-0.534l0.119,0l0,0.144l-0.021,-0.044c0.019,-0.034 0.046,-0.061 0.081,-0.079c0.036,-0.018 0.077,-0.027 0.124,-0.027c0.043,-0 0.081,0.008 0.115,0.025c0.033,0.016 0.059,0.042 0.079,0.076c0.019,0.035 0.029,0.079 0.029,0.133l-0,0.306l-0.125,-0l-0,-0.29c-0,-0.047 -0.011,-0.082 -0.033,-0.106c-0.023,-0.023 -0.054,-0.035 -0.094,-0.035c-0.029,0 -0.055,0.006 -0.078,0.018c-0.023,0.012 -0.04,0.03 -0.052,0.054c-0.013,0.023 -0.019,0.053 -0.019,0.089l0,0.27l-0.125,-0Z" style="fill:#dd1b72;fill-rule:nonzero;"/></g><g transform="matrix(592.75,0,0,592.75,5060.67,441.694)"><path d="M0.411,-0l-0,-0.108l-0.007,-0.023l0,-0.189c0,-0.037 -0.011,-0.065 -0.033,-0.085c-0.022,-0.021 -0.056,-0.031 -0.1,-0.031c-0.03,-0 -0.06,0.005 -0.088,0.014c-0.029,0.01 -0.054,0.022 -0.074,0.039l-0.049,-0.091c0.029,-0.022 0.063,-0.038 0.103,-0.05c0.039,-0.011 0.081,-0.016 0.123,-0.016c0.077,-0 0.137,0.018 0.18,0.055c0.042,0.037 0.063,0.094 0.063,0.172l0,0.313l-0.118,0Zm-0.168,0.007c-0.04,-0 -0.075,-0.007 -0.105,-0.021c-0.03,-0.013 -0.054,-0.032 -0.07,-0.057c-0.016,-0.024 -0.024,-0.051 -0.024,-0.082c-0,-0.03 0.007,-0.057 0.022,-0.081c0.014,-0.024 0.038,-0.043 0.07,-0.057c0.033,-0.014 0.076,-0.021 0.13,-0.021l0.155,0l-0,0.083l-0.146,-0c-0.043,-0 -0.071,0.007 -0.086,0.021c-0.015,0.013 -0.022,0.03 -0.022,0.05c-0,0.023 0.009,0.041 0.027,0.054c0.018,0.013 0.043,0.02 0.075,0.02c0.031,-0 0.058,-0.007 0.083,-0.021c0.024,-0.014 0.042,-0.034 0.052,-0.062l0.021,0.075c-0.012,0.032 -0.033,0.056 -0.064,0.073c-0.031,0.017 -0.07,0.026 -0.118,0.026Z" style="fill:#dd1b72;fill-rule:nonzero;"/></g><g transform="matrix(592.75,0,0,592.75,5400.91,441.694)"><rect x="0.082" y="-0.742" width="0.125" height="0.742" style="fill:#dd1b72;fill-rule:nonzero;"/></g><g transform="matrix(592.75,0,0,592.75,5697.29,441.694)"><path d="M0.105,-0l0,-0.7l0.494,0l0,0.087l-0.394,-0l-0,0.613l-0.1,0Zm0.09,-0.283l0,-0.086l0.361,-0l-0,0.086l-0.361,0Z" style="fill:#dd1b72;fill-rule:nonzero;"/></g><g transform="matrix(592.75,0,0,592.75,6070.13,441.694)"><path d="M0.091,-0l0,-0.53l0.096,0l0,0.53l-0.096,-0Zm0.048,-0.632c-0.019,0 -0.034,-0.006 -0.047,-0.018c-0.012,-0.012 -0.018,-0.027 -0.018,-0.044c-0,-0.018 0.006,-0.033 0.018,-0.045c0.013,-0.012 0.028,-0.018 0.047,-0.018c0.019,0 0.034,0.006 0.046,0.018c0.013,0.011 0.019,0.026 0.019,0.043c0,0.018 -0.006,0.033 -0.018,0.046c-0.012,0.012 -0.028,0.018 -0.047,0.018Z" style="fill:#dd1b72;fill-rule:nonzero;"/></g><g transform="matrix(592.75,0,0,592.75,6218.31,441.694)"><rect x="0.091" y="-0.742" width="0.096" height="0.742" style="fill:#dd1b72;fill-rule:nonzero;"/></g><g transform="matrix(592.75,0,0,592.75,6366.5,441.694)"><path d="M0.091,-0l0,-0.53l0.092,0l0,0.141l-0.015,-0.036c0.017,-0.035 0.042,-0.062 0.077,-0.081c0.035,-0.02 0.075,-0.029 0.121,-0.029c0.051,-0 0.094,0.012 0.131,0.037c0.037,0.025 0.061,0.063 0.072,0.114l-0.039,-0.016c0.016,-0.04 0.044,-0.073 0.084,-0.098c0.04,-0.025 0.086,-0.037 0.14,-0.037c0.043,-0 0.081,0.008 0.113,0.025c0.033,0.016 0.058,0.042 0.076,0.076c0.019,0.034 0.028,0.077 0.028,0.129l-0,0.305l-0.096,0l-0,-0.294c-0,-0.052 -0.012,-0.09 -0.036,-0.116c-0.024,-0.026 -0.057,-0.039 -0.101,-0.039c-0.032,-0 -0.06,0.006 -0.084,0.02c-0.024,0.013 -0.042,0.033 -0.055,0.059c-0.013,0.026 -0.02,0.058 -0.02,0.097l0,0.273l-0.096,-0l0,-0.294c0,-0.052 -0.012,-0.09 -0.036,-0.116c-0.023,-0.026 -0.057,-0.039 -0.101,-0.039c-0.031,-0 -0.059,0.006 -0.083,0.02c-0.024,0.013 -0.043,0.033 -0.056,0.059c-0.013,0.026 -0.02,0.058 -0.02,0.097l0,0.273l-0.096,-0Z" style="fill:#dd1b72;fill-rule:nonzero;"/></g><g transform="matrix(592.75,0,0,592.75,7147.75,441.694)"><path d="M0.105,-0l0,-0.7l0.494,0l0,0.087l-0.394,-0l-0,0.613l-0.1,0Zm0.09,-0.283l0,-0.086l0.361,-0l-0,0.086l-0.361,0Z" style="fill:#dd1b72;fill-rule:nonzero;"/></g><g transform="matrix(592.75,0,0,592.75,7508.73,441.694)"><path d="M0.327,0.006c-0.057,-0 -0.106,-0.012 -0.149,-0.035c-0.043,-0.023 -0.076,-0.055 -0.1,-0.096c-0.024,-0.041 -0.036,-0.088 -0.036,-0.14c0,-0.052 0.012,-0.099 0.035,-0.14c0.022,-0.04 0.054,-0.072 0.094,-0.095c0.041,-0.024 0.086,-0.035 0.137,-0.035c0.051,-0 0.096,0.011 0.136,0.034c0.039,0.023 0.07,0.055 0.093,0.096c0.022,0.04 0.033,0.088 0.033,0.143c0,0.004 0,0.008 -0,0.014c-0.001,0.005 -0.001,0.01 -0.002,0.015l-0.451,0l0,-0.069l0.401,-0l-0.039,0.024c0.001,-0.034 -0.006,-0.065 -0.021,-0.091c-0.015,-0.026 -0.035,-0.047 -0.061,-0.062c-0.025,-0.015 -0.055,-0.023 -0.089,-0.023c-0.033,0 -0.063,0.008 -0.089,0.023c-0.026,0.015 -0.046,0.036 -0.061,0.062c-0.014,0.027 -0.022,0.058 -0.022,0.093l0,0.016c0,0.036 0.008,0.067 0.025,0.094c0.016,0.028 0.038,0.049 0.068,0.065c0.029,0.015 0.063,0.023 0.101,0.023c0.031,-0 0.06,-0.006 0.086,-0.016c0.026,-0.011 0.048,-0.027 0.067,-0.048l0.053,0.062c-0.024,0.028 -0.054,0.049 -0.089,0.064c-0.036,0.014 -0.076,0.022 -0.12,0.022Z" style="fill:#dd1b72;fill-rule:nonzero;"/></g><g transform="matrix(592.75,0,0,592.75,7856.68,441.694)"><path d="M0.243,0.006c-0.044,-0 -0.086,-0.006 -0.126,-0.018c-0.039,-0.012 -0.071,-0.027 -0.093,-0.044l0.04,-0.076c0.023,0.016 0.051,0.029 0.084,0.039c0.034,0.011 0.067,0.016 0.102,0.016c0.044,0 0.077,-0.006 0.097,-0.019c0.019,-0.013 0.029,-0.031 0.029,-0.053c0,-0.017 -0.006,-0.03 -0.018,-0.039c-0.012,-0.009 -0.028,-0.016 -0.048,-0.021c-0.02,-0.005 -0.041,-0.009 -0.065,-0.013c-0.024,-0.003 -0.048,-0.008 -0.072,-0.013c-0.024,-0.006 -0.046,-0.014 -0.066,-0.024c-0.02,-0.011 -0.036,-0.025 -0.048,-0.044c-0.012,-0.018 -0.018,-0.043 -0.018,-0.073c0,-0.032 0.009,-0.06 0.027,-0.084c0.018,-0.024 0.044,-0.042 0.076,-0.055c0.033,-0.014 0.073,-0.02 0.118,-0.02c0.035,-0 0.07,0.004 0.106,0.013c0.035,0.008 0.064,0.02 0.087,0.035l-0.041,0.076c-0.024,-0.016 -0.049,-0.027 -0.075,-0.033c-0.026,-0.006 -0.052,-0.009 -0.078,-0.009c-0.042,0 -0.073,0.007 -0.094,0.02c-0.02,0.014 -0.031,0.031 -0.031,0.053c0,0.018 0.006,0.032 0.019,0.041c0.012,0.01 0.028,0.017 0.047,0.023c0.02,0.005 0.042,0.01 0.066,0.013c0.024,0.004 0.048,0.009 0.072,0.014c0.024,0.006 0.046,0.014 0.065,0.024c0.02,0.01 0.036,0.024 0.048,0.042c0.013,0.018 0.019,0.042 0.019,0.072c-0,0.032 -0.01,0.06 -0.028,0.083c-0.019,0.024 -0.045,0.042 -0.079,0.054c-0.034,0.013 -0.074,0.02 -0.122,0.02Z" style="fill:#dd1b72;fill-rule:nonzero;"/></g><g transform="matrix(592.75,0,0,592.75,8131.12,441.694)"><path d="M0.273,0.006c-0.053,-0 -0.095,-0.015 -0.124,-0.043c-0.029,-0.028 -0.044,-0.07 -0.044,-0.123l0,-0.486l0.096,-0l0,0.482c0,0.029 0.007,0.05 0.022,0.066c0.014,0.015 0.035,0.023 0.061,0.023c0.03,-0 0.055,-0.008 0.075,-0.025l0.03,0.069c-0.015,0.012 -0.032,0.022 -0.053,0.028c-0.02,0.006 -0.041,0.009 -0.063,0.009Zm-0.258,-0.457l-0,-0.079l0.338,0l0,0.079l-0.338,0Z" style="fill:#dd1b72;fill-rule:nonzero;"/></g><g transform="matrix(592.75,0,0,592.75,8361.11,441.694)"><path d="M0.091,-0l0,-0.53l0.096,0l0,0.53l-0.096,-0Zm0.048,-0.632c-0.019,0 -0.034,-0.006 -0.047,-0.018c-0.012,-0.012 -0.018,-0.027 -0.018,-0.044c-0,-0.018 0.006,-0.033 0.018,-0.045c0.013,-0.012 0.028,-0.018 0.047,-0.018c0.019,0 0.034,0.006 0.046,0.018c0.013,0.011 0.019,0.026 0.019,0.043c0,0.018 -0.006,0.033 -0.018,0.046c-0.012,0.012 -0.028,0.018 -0.047,0.018Z" style="fill:#dd1b72;fill-rule:nonzero;"/></g><g transform="matrix(592.75,0,0,592.75,8509.29,441.694)"><path d="M0.23,-0l-0.232,-0.53l0.1,0l0.206,0.48l-0.048,-0l0.21,-0.48l0.094,0l-0.232,0.53l-0.098,-0Z" style="fill:#dd1b72;fill-rule:nonzero;"/></g><g transform="matrix(592.75,0,0,592.75,8801.52,441.694)"><path d="M0.42,-0l-0,-0.112l-0.005,-0.021l0,-0.191c0,-0.041 -0.011,-0.072 -0.035,-0.095c-0.024,-0.022 -0.059,-0.033 -0.107,-0.033c-0.032,-0 -0.062,0.005 -0.092,0.015c-0.03,0.011 -0.055,0.024 -0.076,0.042l-0.04,-0.072c0.027,-0.022 0.06,-0.039 0.099,-0.051c0.038,-0.011 0.078,-0.017 0.12,-0.017c0.073,-0 0.129,0.018 0.168,0.053c0.04,0.035 0.059,0.09 0.059,0.162l0,0.32l-0.091,0Zm-0.174,0.006c-0.039,-0 -0.074,-0.007 -0.104,-0.02c-0.029,-0.013 -0.052,-0.032 -0.068,-0.055c-0.016,-0.024 -0.024,-0.051 -0.024,-0.081c-0,-0.029 0.007,-0.055 0.02,-0.078c0.014,-0.023 0.036,-0.042 0.067,-0.056c0.032,-0.014 0.073,-0.021 0.126,-0.021l0.168,-0l-0,0.069l-0.164,0c-0.048,0 -0.08,0.008 -0.097,0.024c-0.017,0.016 -0.025,0.035 -0.025,0.058c-0,0.026 0.01,0.047 0.031,0.063c0.021,0.015 0.05,0.023 0.086,0.023c0.036,-0 0.068,-0.008 0.095,-0.024c0.027,-0.016 0.046,-0.04 0.058,-0.07l0.019,0.066c-0.013,0.032 -0.035,0.056 -0.067,0.075c-0.032,0.018 -0.072,0.027 -0.121,0.027Z" style="fill:#dd1b72;fill-rule:nonzero;"/></g><g transform="matrix(592.75,0,0,592.75,9141.76,441.694)"><rect x="0.091" y="-0.742" width="0.096" height="0.742" style="fill:#dd1b72;fill-rule:nonzero;"/></g></g><path d="M438.909,305.976l-0,-228.602l166.772,0l-0,35.668l-124.558,0l0,157.266l129.084,0l-0,35.668l-171.298,0Zm38.979,-98.697l0,-34.759l113.832,-0l-0,34.759l-113.832,0Z" style="fill:#dd1b72;fill-rule:nonzero;"/><path d="M694.524,305.976l-74.688,-174.37l42.209,-0l64.494,153.811l-20.865,0l66.376,-153.811l39.459,-0l-74.974,174.37l-42.011,0Z" style="fill:#dd1b72;fill-rule:nonzero;"/><path d="M887.626,308.104c-17.89,-0 -33.833,-3.831 -47.83,-11.494c-13.997,-7.663 -25.031,-18.241 -33.104,-31.736c-8.072,-13.495 -12.109,-28.88 -12.109,-46.154c0,-17.469 4.055,-32.89 12.163,-46.264c8.108,-13.374 19.122,-23.881 33.042,-31.52c13.921,-7.638 29.867,-11.458 47.838,-11.458c17.976,0 33.983,3.814 48.022,11.44c14.039,7.627 25.054,18.117 33.043,31.469c7.989,13.352 11.984,28.798 11.984,46.338c-0,17.342 -3.983,32.743 -11.948,46.202c-7.966,13.46 -19.003,24.02 -33.112,31.683c-14.109,7.663 -30.105,11.494 -47.989,11.494Zm0,-34.729c9.995,-0 18.875,-2.207 26.642,-6.621c7.766,-4.414 13.903,-10.756 18.41,-19.028c4.508,-8.272 6.761,-17.935 6.761,-28.991c0,-11.226 -2.253,-20.914 -6.761,-29.063c-4.507,-8.149 -10.644,-14.43 -18.41,-18.844c-7.767,-4.414 -16.599,-6.621 -26.499,-6.621c-9.896,0 -18.727,2.207 -26.493,6.621c-7.766,4.414 -13.952,10.695 -18.556,18.844c-4.604,8.149 -6.907,17.837 -6.907,29.063c0,11.056 2.303,20.719 6.907,28.991c4.604,8.272 10.783,14.614 18.536,19.028c7.752,4.414 16.543,6.621 26.37,6.621Z" style="fill:#dd1b72;fill-rule:nonzero;"/><rect x="1008.38" y="63.658" width="40.822" height="242.318" style="fill:#dd1b72;fill-rule:nonzero;"/><path d="M1163.91,308.104c-14.91,-0 -28.032,-2.743 -39.367,-8.228c-11.335,-5.486 -20.173,-13.952 -26.514,-25.399c-6.341,-11.447 -9.511,-25.912 -9.511,-43.394l-0,-99.477l40.821,-0l0,94.135c0,15.658 3.585,27.319 10.754,34.982c7.17,7.662 17.284,11.494 30.344,11.494c9.474,-0 17.774,-1.95 24.901,-5.848c7.127,-3.899 12.693,-9.746 16.699,-17.543c4.005,-7.797 6.008,-17.472 6.008,-29.025l-0,-88.195l40.822,-0l-0,174.37l-38.934,0l-0,-47.047l6.935,14.323c-5.937,11.281 -14.539,19.909 -25.807,25.886c-11.269,5.977 -23.652,8.966 -37.151,8.966Z" style="fill:#dd1b72;fill-rule:nonzero;"/><path d="M1372.33,308.104c-19.105,-0 -33.904,-4.938 -44.397,-14.813c-10.492,-9.876 -15.739,-24.459 -15.739,-43.751l0,-156.398l40.822,-0l-0,155.459c-0,8.287 2.133,14.712 6.399,19.276c4.266,4.563 10.282,6.845 18.048,6.845c8.967,-0 16.509,-2.39 22.625,-7.169l11.665,29.09c-4.902,3.834 -10.852,6.703 -17.852,8.606c-6.999,1.903 -14.189,2.855 -21.571,2.855Zm-88.614,-143.938l-0,-32.56l116.112,-0l0,32.56l-116.112,0Z" style="fill:#dd1b72;fill-rule:nonzero;"/><path d="M1433.51,305.976l0,-174.39l40.822,-0l0,174.39l-40.822,0Zm20.574,-203.129c-7.62,0 -13.879,-2.395 -18.778,-7.185c-4.898,-4.789 -7.347,-10.559 -7.347,-17.308c-0,-6.967 2.449,-12.791 7.347,-17.472c4.899,-4.681 11.158,-7.021 18.778,-7.021c7.621,-0 13.88,2.232 18.778,6.695c4.899,4.463 7.348,10.069 7.348,16.818c0,7.185 -2.394,13.227 -7.184,18.125c-4.79,4.899 -11.104,7.348 -18.942,7.348Z" style="fill:#dd1b72;fill-rule:nonzero;"/><path d="M1593.68,308.104c-17.891,-0 -33.834,-3.831 -47.831,-11.494c-13.997,-7.663 -25.031,-18.241 -33.104,-31.736c-8.072,-13.495 -12.108,-28.88 -12.108,-46.154c-0,-17.469 4.054,-32.89 12.162,-46.264c8.108,-13.374 19.122,-23.881 33.043,-31.52c13.92,-7.638 29.866,-11.458 47.838,-11.458c17.975,0 33.982,3.814 48.021,11.44c14.04,7.627 25.054,18.117 33.043,31.469c7.989,13.352 11.984,28.798 11.984,46.338c-0,17.342 -3.983,32.743 -11.948,46.202c-7.966,13.46 -19.003,24.02 -33.112,31.683c-14.109,7.663 -30.105,11.494 -47.988,11.494Zm-0,-34.729c9.994,-0 18.875,-2.207 26.641,-6.621c7.766,-4.414 13.903,-10.756 18.411,-19.028c4.507,-8.272 6.761,-17.935 6.761,-28.991c-0,-11.226 -2.254,-20.914 -6.761,-29.063c-4.508,-8.149 -10.645,-14.43 -18.411,-18.844c-7.766,-4.414 -16.599,-6.621 -26.499,-6.621c-9.895,0 -18.727,2.207 -26.493,6.621c-7.766,4.414 -13.952,10.695 -18.556,18.844c-4.604,8.149 -6.906,17.837 -6.906,29.063c-0,11.056 2.302,20.719 6.906,28.991c4.604,8.272 10.783,14.614 18.536,19.028c7.752,4.414 16.543,6.621 26.371,6.621Z" style="fill:#dd1b72;fill-rule:nonzero;"/><path d="M1714.43,305.976l0,-174.37l38.934,-0l0,47.134l-6.934,-14.456c6.021,-11.223 14.869,-19.829 26.544,-25.82c11.675,-5.991 25.09,-8.986 40.245,-8.986c14.097,0 26.602,2.728 37.515,8.185c10.913,5.456 19.534,13.826 25.863,25.108c6.33,11.282 9.494,25.717 9.494,43.304l0,99.901l-40.822,0l0,-94.558c0,-15.462 -3.618,-27.002 -10.856,-34.622c-7.237,-7.62 -17.452,-11.43 -30.644,-11.43c-9.559,-0 -18.025,1.948 -25.399,5.845c-7.373,3.896 -13.07,9.69 -17.089,17.38c-4.019,7.689 -6.029,17.419 -6.029,29.19l0,88.195l-40.822,0Z" style="fill:#dd1b72;fill-rule:nonzero;"/><path d="M1714.49,621.661l-0,-16.638l53.424,-50.781c4.408,-4.17 7.71,-7.873 9.907,-11.108c2.197,-3.235 3.663,-6.218 4.398,-8.949c0.735,-2.731 1.103,-5.309 1.103,-7.735c-0,-6.114 -2.119,-10.88 -6.357,-14.297c-4.238,-3.417 -10.483,-5.125 -18.735,-5.125c-6.532,-0 -12.454,1.139 -17.765,3.418c-5.311,2.279 -9.882,5.802 -13.714,10.568l-17.46,-13.41c5.2,-6.988 12.273,-12.443 21.22,-16.364c8.947,-3.921 18.926,-5.881 29.936,-5.881c9.732,-0 18.192,1.561 25.381,4.683c7.189,3.122 12.753,7.568 16.692,13.338c3.939,5.77 5.909,12.609 5.909,20.517c-0,4.352 -0.572,8.676 -1.715,12.972c-1.143,4.296 -3.323,8.816 -6.54,13.56c-3.217,4.744 -7.922,10.06 -14.116,15.948l-45.84,43.581l-5.265,-9.39l78.555,-0l-0,21.093l-99.018,-0Z" style="fill:#dd1b72;fill-rule:nonzero;"/><path d="M1844.35,621.661l-0,-124.842l10.866,11.412l-39.423,-0l-0,-20.97l53.475,-0l-0,134.4l-24.918,-0Z" style="fill:#dd1b72;fill-rule:nonzero;"/><rect x="1890.48" y="558.211" width="52.92" height="20.103" style="fill:#dd1b72;fill-rule:nonzero;"/><path d="M1957.75,621.661l-0,-16.638l53.424,-50.781c4.408,-4.17 7.71,-7.873 9.907,-11.108c2.197,-3.235 3.663,-6.218 4.398,-8.949c0.735,-2.731 1.103,-5.309 1.103,-7.735c-0,-6.114 -2.119,-10.88 -6.357,-14.297c-4.238,-3.417 -10.483,-5.125 -18.735,-5.125c-6.532,-0 -12.454,1.139 -17.765,3.418c-5.311,2.279 -9.882,5.802 -13.714,10.568l-17.46,-13.41c5.2,-6.988 12.273,-12.443 21.22,-16.364c8.947,-3.921 18.926,-5.881 29.936,-5.881c9.732,-0 18.192,1.561 25.381,4.683c7.189,3.122 12.753,7.568 16.692,13.338c3.939,5.77 5.909,12.609 5.909,20.517c-0,4.352 -0.572,8.676 -1.715,12.972c-1.143,4.296 -3.323,8.816 -6.54,13.56c-3.217,4.744 -7.922,10.06 -14.116,15.948l-45.84,43.581l-5.265,-9.39l78.555,-0l-0,21.093l-99.018,-0Z" style="fill:#dd1b72;fill-rule:nonzero;"/><path d="M2103.61,623.563c-6.71,-0 -13.132,-0.705 -19.266,-2.115c-6.134,-1.41 -11.482,-3.556 -16.044,-6.438l9.297,-18.975c3.634,2.48 7.634,4.2 12.001,5.16c4.367,0.96 8.886,1.44 13.556,1.44c12.654,-0 22.704,-3.89 30.15,-11.67c7.446,-7.78 11.169,-19.306 11.169,-34.578c-0,-2.476 -0.084,-5.339 -0.251,-8.589c-0.167,-3.25 -0.64,-6.503 -1.42,-9.759l7.692,8.322c-2.098,5.244 -5.214,9.648 -9.347,13.213c-4.133,3.565 -8.957,6.232 -14.473,8c-5.516,1.768 -11.577,2.652 -18.183,2.652c-8.75,-0 -16.613,-1.705 -23.589,-5.114c-6.976,-3.409 -12.497,-8.206 -16.562,-14.391c-4.065,-6.185 -6.097,-13.462 -6.097,-21.832c-0,-8.932 2.181,-16.64 6.544,-23.123c4.363,-6.483 10.282,-11.505 17.757,-15.066c7.475,-3.561 15.768,-5.341 24.878,-5.341c12.242,-0 22.693,2.575 31.354,7.726c8.661,5.151 15.294,12.674 19.898,22.569c4.604,9.895 6.906,22.036 6.906,36.422c-0,15.41 -2.802,28.428 -8.405,39.054c-5.603,10.626 -13.331,18.688 -23.185,24.186c-9.854,5.498 -21.314,8.247 -34.38,8.247Zm9.714,-72.933c5.362,-0 10.102,-0.994 14.22,-2.982c4.118,-1.988 7.31,-4.73 9.577,-8.226c2.267,-3.496 3.401,-7.433 3.401,-11.811c-0,-4.264 -1.078,-8.089 -3.233,-11.474c-2.155,-3.385 -5.291,-6.095 -9.409,-8.131c-4.118,-2.036 -9.193,-3.054 -15.225,-3.054c-5.14,-0 -9.682,0.934 -13.625,2.803c-3.943,1.869 -7.024,4.496 -9.243,7.881c-2.219,3.385 -3.328,7.433 -3.328,12.143c-0,7.01 2.426,12.571 7.279,16.683c4.853,4.112 11.382,6.168 19.586,6.168Z" style="fill:#dd1b72;fill-rule:nonzero;"/><path d="M2300.22,623.563c-10.418,-0 -20.056,-1.728 -28.914,-5.184c-8.858,-3.456 -16.54,-8.297 -23.046,-14.522c-6.506,-6.225 -11.564,-13.528 -15.173,-21.909c-3.609,-8.381 -5.413,-17.547 -5.413,-27.499c-0,-9.952 1.804,-19.113 5.413,-27.483c3.609,-8.37 8.674,-15.677 15.194,-21.921c6.52,-6.244 14.189,-11.086 23.008,-14.526c8.819,-3.44 18.447,-5.16 28.883,-5.16c10.45,-0 20.065,1.71 28.845,5.13c8.78,3.42 16.418,8.234 22.914,14.442c6.496,6.208 11.548,13.516 15.157,21.925c3.609,8.409 5.414,17.613 5.414,27.611c-0,9.998 -1.805,19.201 -5.414,27.609c-3.609,8.408 -8.661,15.714 -15.157,21.919c-6.496,6.205 -14.134,11.018 -22.914,14.438c-8.78,3.42 -18.379,5.13 -28.797,5.13Zm-0.051,-21.795c6.788,-0 13.041,-1.166 18.76,-3.498c5.719,-2.332 10.703,-5.627 14.951,-9.884c4.248,-4.257 7.558,-9.262 9.93,-15.016c2.372,-5.754 3.558,-12.074 3.558,-18.96c-0,-6.886 -1.18,-13.185 -3.54,-18.896c-2.36,-5.711 -5.667,-10.697 -9.92,-14.959c-4.253,-4.262 -9.242,-7.561 -14.967,-9.897c-5.725,-2.336 -11.981,-3.504 -18.769,-3.504c-6.788,-0 -13.058,1.169 -18.809,3.508c-5.751,2.339 -10.763,5.644 -15.036,9.914c-4.273,4.27 -7.594,9.264 -9.964,14.983c-2.37,5.719 -3.555,12.002 -3.555,18.848c-0,6.844 1.182,13.143 3.547,18.897c2.365,5.754 5.68,10.778 9.944,15.073c4.264,4.295 9.278,7.601 15.042,9.917c5.764,2.316 12.04,3.474 18.828,3.474Z" style="fill:#dd1b72;fill-rule:nonzero;"/><path d="M2442.48,622.912c-10.696,-0 -20.242,-2.248 -28.638,-6.744c-8.396,-4.496 -14.972,-10.705 -19.727,-18.627c-4.755,-7.922 -7.132,-16.972 -7.132,-27.15c-0,-10.29 2.377,-19.364 7.132,-27.222c4.755,-7.858 11.331,-14.035 19.727,-18.531c8.396,-4.496 17.942,-6.744 28.638,-6.744c10.012,-0 18.838,2.027 26.478,6.082c7.64,4.055 13.41,10 17.31,17.834l-18.387,10.827c-3.066,-4.864 -6.808,-8.468 -11.226,-10.811c-4.418,-2.343 -9.207,-3.514 -14.367,-3.514c-5.876,-0 -11.165,1.297 -15.867,3.892c-4.702,2.595 -8.411,6.288 -11.126,11.079c-2.715,4.791 -4.072,10.494 -4.072,17.108c-0,6.614 1.357,12.32 4.072,17.119c2.715,4.799 6.424,8.496 11.126,11.091c4.702,2.595 9.991,3.893 15.867,3.893c5.16,-0 9.949,-1.144 14.367,-3.431c4.418,-2.287 8.16,-5.918 11.226,-10.894l18.387,10.827c-3.9,7.722 -9.67,13.638 -17.31,17.749c-7.64,4.111 -16.466,6.167 -26.478,6.167Z" style="fill:#dd1b72;fill-rule:nonzero;"/><path d="M2539.64,622.912c-11.232,-0 -19.933,-2.903 -26.102,-8.709c-6.169,-5.806 -9.253,-14.38 -9.253,-25.722l-0,-91.95l24,-0l-0,91.398c-0,4.872 1.254,8.649 3.762,11.332c2.508,2.683 6.045,4.025 10.611,4.025c5.272,-0 9.706,-1.405 13.302,-4.215l6.858,17.103c-2.882,2.254 -6.381,3.94 -10.496,5.059c-4.115,1.119 -8.342,1.679 -12.682,1.679Zm-52.098,-84.624l-0,-19.143l68.265,-0l-0,19.143l-68.265,-0Z" style="fill:#dd1b72;fill-rule:nonzero;"/><path d="M2585.29,622.912c-4.382,-0 -8.113,-1.5 -11.193,-4.5c-3.08,-3 -4.62,-6.811 -4.62,-11.433c-0,-4.748 1.54,-8.582 4.62,-11.502c3.08,-2.92 6.811,-4.38 11.193,-4.38c4.272,-0 7.948,1.46 11.028,4.38c3.08,2.92 4.62,6.754 4.62,11.502c-0,4.622 -1.54,8.433 -4.62,11.433c-3.08,3 -6.756,4.5 -11.028,4.5Z" style="fill:#dd1b72;fill-rule:nonzero;"/><path d="M2651.45,621.661l-0,-16.638l53.424,-50.781c4.408,-4.17 7.71,-7.873 9.907,-11.108c2.197,-3.235 3.663,-6.218 4.398,-8.949c0.735,-2.731 1.103,-5.309 1.103,-7.735c-0,-6.114 -2.119,-10.88 -6.357,-14.297c-4.238,-3.417 -10.483,-5.125 -18.735,-5.125c-6.532,-0 -12.454,1.139 -17.765,3.418c-5.311,2.279 -9.882,5.802 -13.714,10.568l-17.46,-13.41c5.2,-6.988 12.273,-12.443 21.22,-16.364c8.947,-3.921 18.926,-5.881 29.936,-5.881c9.732,-0 18.192,1.561 25.381,4.683c7.189,3.122 12.753,7.568 16.692,13.338c3.939,5.77 5.909,12.609 5.909,20.517c-0,4.352 -0.572,8.676 -1.715,12.972c-1.143,4.296 -3.323,8.816 -6.54,13.56c-3.217,4.744 -7.922,10.06 -14.116,15.948l-45.84,43.581l-5.265,-9.39l78.555,-0l-0,21.093l-99.018,-0Z" style="fill:#dd1b72;fill-rule:nonzero;"/><path d="M2814.93,623.563c-10.678,-0 -20.259,-2.697 -28.742,-8.09c-8.483,-5.393 -15.177,-13.226 -20.083,-23.499c-4.906,-10.273 -7.359,-22.777 -7.359,-37.513c-0,-14.736 2.453,-27.241 7.359,-37.514c4.906,-10.273 11.6,-18.106 20.083,-23.499c8.483,-5.393 18.064,-8.089 28.742,-8.089c10.678,-0 20.258,2.696 28.741,8.089c8.483,5.393 15.178,13.226 20.084,23.499c4.906,10.273 7.359,22.778 7.359,37.514c-0,14.736 -2.453,27.24 -7.359,37.513c-4.906,10.273 -11.601,18.106 -20.084,23.499c-8.483,5.393 -18.063,8.09 -28.741,8.09Zm-0,-21.744c6.176,-0 11.586,-1.693 16.23,-5.078c4.644,-3.385 8.279,-8.577 10.905,-15.576c2.626,-6.999 3.939,-15.9 3.939,-26.704c-0,-10.822 -1.313,-19.728 -3.939,-26.718c-2.626,-6.99 -6.261,-12.178 -10.905,-15.563c-4.644,-3.385 -10.054,-5.077 -16.23,-5.077c-6.064,-0 -11.446,1.692 -16.146,5.077c-4.7,3.385 -8.363,8.573 -10.989,15.563c-2.626,6.99 -3.939,15.896 -3.939,26.718c-0,10.804 1.313,19.705 3.939,26.704c2.626,6.999 6.289,12.191 10.989,15.576c4.7,3.385 10.082,5.078 16.146,5.078Z" style="fill:#dd1b72;fill-rule:nonzero;"/><path d="M2882.23,621.661l-0,-16.638l53.424,-50.781c4.408,-4.17 7.71,-7.873 9.907,-11.108c2.197,-3.235 3.663,-6.218 4.398,-8.949c0.735,-2.731 1.103,-5.309 1.103,-7.735c-0,-6.114 -2.119,-10.88 -6.357,-14.297c-4.238,-3.417 -10.483,-5.125 -18.735,-5.125c-6.532,-0 -12.454,1.139 -17.765,3.418c-5.311,2.279 -9.882,5.802 -13.714,10.568l-17.46,-13.41c5.2,-6.988 12.273,-12.443 21.22,-16.364c8.947,-3.921 18.926,-5.881 29.936,-5.881c9.732,-0 18.192,1.561 25.381,4.683c7.189,3.122 12.753,7.568 16.692,13.338c3.939,5.77 5.909,12.609 5.909,20.517c-0,4.352 -0.572,8.676 -1.715,12.972c-1.143,4.296 -3.323,8.816 -6.54,13.56c-3.217,4.744 -7.922,10.06 -14.116,15.948l-45.84,43.581l-5.265,-9.39l78.555,-0l-0,21.093l-99.018,-0Z" style="fill:#dd1b72;fill-rule:nonzero;"/><path d="M3035.03,623.563c-9.44,-0 -18.673,-1.359 -27.699,-4.076c-9.026,-2.717 -16.621,-6.505 -22.785,-11.365l10.677,-19.53c4.868,3.996 10.772,7.212 17.713,9.648c6.941,2.436 14.175,3.654 21.701,3.654c8.91,-0 15.893,-1.844 20.949,-5.531c5.056,-3.687 7.584,-8.707 7.584,-15.061c-0,-4.26 -1.078,-7.962 -3.234,-11.106c-2.156,-3.144 -5.872,-5.574 -11.148,-7.289c-5.276,-1.715 -12.56,-2.572 -21.852,-2.572l-32.289,-0l6.885,-73.074l78.918,-0l-0,20.97l-69.834,-0l13.152,-11.871l-5.202,54.708l-13.152,-11.868l27.117,-0c13.312,-0 24.051,1.78 32.218,5.341c8.167,3.561 14.13,8.434 17.889,14.619c3.759,6.185 5.639,13.246 5.639,21.182c-0,7.826 -1.921,15.02 -5.763,21.583c-3.842,6.563 -9.69,11.81 -17.544,15.741c-7.854,3.931 -17.834,5.897 -29.94,5.897Z" style="fill:#dd1b72;fill-rule:nonzero;"/></g></svg>