<?xml version="1.0" encoding="UTF-8" standalone="no"?>
<!DOCTYPE svg PUBLIC "-//W3C//DTD SVG 1.1//EN" "http://www.w3.org/Graphics/SVG/1.1/DTD/svg11.dtd">
<svg width="100%" height="100%" viewBox="0 0 24 24" version="1.1" xmlns="http://www.w3.org/2000/svg" xmlns:xlink="http://www.w3.org/1999/xlink" xml:space="preserve" xmlns:serif="http://www.serif.com/" style="fill-rule:evenodd;clip-rule:evenodd;stroke-linejoin:round;stroke-miterlimit:2;">
    <g transform="matrix(1.26688,0,0,1.26688,-3.24943,-3.25692)">
        <path d="M16.9,15.5C19.3,12.3 19.1,7.8 16.2,4.9C13.1,1.8 8.1,1.8 4.9,4.9C1.8,8.1 1.8,13.2 4.9,16.3C7.8,19.2 12.4,19.4 15.5,16.9L15.5,17L19.7,21.2C20.2,21.6 20.8,21.6 21.2,21.2C21.6,20.8 21.6,20.2 21.2,19.8L16.9,15.5ZM14.8,6.3C17.1,8.6 17.1,12.4 14.8,14.8C12.5,17.1 8.7,17.1 6.3,14.8C4,12.5 4,8.7 6.3,6.3C8.7,4 12.5,4 14.8,6.3Z" style="fill-rule:nonzero;"/>
    </g>
</svg>
